# 0CC-FamiTracker text export 0.3.15.3

# Module information
TITLE           ""
AUTHOR          ""
COPYRIGHT       ""

# Module comment
COMMENT ""

# Global settings
MACHINE         0
FRAMERATE       0
EXPANSION       0
VIBRATO         1
SPLIT           32

# Macros
MACRO       0   0  -1  -1   0 : 3 8 5 4 3 2 2 2 2 1 1 1
MACRO       0   1  -1  -1   0 : 7 6 5 4 3 2 1 1
MACRO       0   2  -1  -1   0 : 15 8 5 4
MACRO       0   3  -1  -1   0 : 15 15 0
MACRO       0   4  -1  -1   0 : 15 15 0
MACRO       0   5  -1  -1   0 : 9 2 0
MACRO       0   6  -1  -1   0 : 6 6 5 5 5 4 4 4 4 3 3 3 3 2 2 2 2 1 1 1 1 1 1 1 0
MACRO       0   7  -1  -1   0 : 13 13 11 10 9 8 7 6 5 4 3 2 1 0
MACRO       0   8  -1  -1   0 : 10 2 1 0
MACRO       0   9   0  -1   0 : 15 0
MACRO       0  10  -1  -1   0 : 9 10 9 8 7 6 5 5 5 5 5 4
MACRO       0  11  -1  -1   0 : 8 8 8 7 7 7 1 1 1 1 1 1 0 0 0
MACRO       0  12  -1  -1   0 : 5 6 5 4 3 2 1
MACRO       0  13  -1  -1   0 : 15
MACRO       0  14  -1  -1   0 : 15
MACRO       0  15  -1  -1   0 : 11 12 11 9 7 7 7 7 7 7 7 7 6 5 4 3
MACRO       0  16  -1  -1   0 : 7 8 8 8 8 7 6 6 6 6 6 5
MACRO       0  17  -1  -1   0 : 13 13 11 10 10 9 9 8 8 8 7 7 7 6 6 6 5 5 5 5 4 4 4 4 4 3 3 3 3 3 3 3 2 2 2 2 2 2 1 1 1 1 1 1 0
MACRO       0  18  11  -1   0 : 9 13 9 11 7 9 5 8 5 8 5 8 5
MACRO       0  19   0  -1   0 : 15 15
MACRO       0  20  -1  -1   0 : 2 5 3 2 2 1 1 1 1 1 1 1
MACRO       0  21  -1  -1   0 : 1
MACRO       0  22  -1  -1   0 : 1
MACRO       0  23  -1  -1   0 : 4
MACRO       0  24  -1  -1   0 : 4 4 3 3 3 3 2 2 3 2 2 2 2 1 1 1 1 1 1 1 1 1 1 1 0
MACRO       0  25  -1  -1   0 : 8 1 1 0
MACRO       0  26  -1  -1   0 : 4 4 4 3 2 1
MACRO       0  27  -1  -1   0 : 1
MACRO       0  28  -1  -1   0 : 3 1
MACRO       0  29  -1  -1   0 : 6 6 6 5 5 5 1 1 1 1 1 1 0 0 0
MACRO       0  30  -1  -1   0 : 3 3 3 2 2 2 1 1 1 1 1 1 0 0 0
MACRO       0  31  -1  -1   0 : 5
MACRO       0  32  -1  -1   0 : 4 1
MACRO       1   0   0  -1   0 : -12 0
MACRO       1   1  -1  -1   1 : 38 35
MACRO       1   2  -1  -1   1 : 49 44
MACRO       1   3  -1  -1   1 : 12 9 10 10 10 11 11 11 12 12 13 13
MACRO       1   4   7  -1   1 : 5 12 12 12 12 12 12 12
MACRO       1   5  -1  -1   1 : 12 9 10 10
MACRO       1   6   1  -1   2 : 0 -24 31 -24 17
MACRO       1   7   1  -1   2 : 0 3 4 -7
MACRO       1   8  -1  -1   2 : 0 0 0 2 0 0 -2 0 0
MACRO       1   9   1  -1   2 : 0 3 2 -5
MACRO       1  10   1  -1   2 : 0 4 1 -5
MACRO       1  11   1  -1   2 : 0 6 2 -8
MACRO       1  12  -1  -1   2 : 0 0 0 3 0 0 -3 0 0
MACRO       1  13   0  -1   2 : 0 -12 12
MACRO       2   0   8  -1   0 : 0 0 0 0 0 0 0 0 1 1 -1 -1 -1 -1 1 1
MACRO       2   1  14  -1   0 : 0 0 0 0 0 0 0 0 0 0 0 0 0 0 2 3 3 -3 -3 -2 -3 -3 3 3
MACRO       2   2  14  -1   0 : 0 0 0 0 0 0 0 0 0 0 0 0 0 0 2 2 2 -2 -2 -2 -2 -2 2 2
MACRO       2   3  -1  -1   0 : 2 2 2 -2 -2 -2 -2 -2 2 2
MACRO       2   4  14  -1   0 : 0 0 0 0 0 0 0 0 0 0 0 0 0 0 2 4 4 -4 -4 -2 -4 -4 4 4
MACRO       2   5   0  -1   0 : -50
MACRO       2   6   0  -1   0 : -5
MACRO       2   7  -1  -1   0 : -4
MACRO       2   8   0  -1   0 : -25
MACRO       2   9   5  -1   0 : 0 -2 -2 -2 -2 -1
MACRO       2  10   5  -1   0 : 0 -3 -3 -2 -2 -1
MACRO       2  11   5  -1   0 : -2 -3 -3 -4 -4 -3
MACRO       2  12   0  -1   0 : 24
MACRO       2  13   2  -1   0 : -2 -2 -1
MACRO       2  14   0  -1   0 : 2 2 2 -2 -2 -2 -2 -2 2 2
MACRO       2  15   6  -1   0 : -2 -2 -3 -3 -3 -2 -1
MACRO       2  16  -1  -1   0 : 0 -1 0 -1 0 -1 0 -1 0 -1 0 -1 0 -1 0 -1 0 -1 0 -1 0 -1 0 -1 0 -1 0 -1 0 -1
MACRO       2  17  -1  -1   0 : -2 -2 -2 -2 -2 -2 -2 -2 -2 -2 -2 -2 -2 -2 -2 -2 -2 -2 -2 -2 -2 -2 -2 -2 -2 -2 -2 -2 -2 -2 -2
MACRO       2  18  -1  -1   0 : -1 -1 -1 -1 -1 -1 -1 -1 -1 -1 -1 -1 -1 -1 -1 -1 -1 -1 -1 -1 -1 -1 -1 -1
MACRO       4   0   0  -1   0 : 1 3
MACRO       4   1  -1  -1   0 : 0 2
MACRO       4   2  -1  -1   0 : 2
MACRO       4   3  -1  -1   0 : 2
MACRO       4   4  -1  -1   0 : 1 0
MACRO       4   5  -1  -1   0 : 3 1
MACRO       4   6   0  -1   0 : 1 3 0
MACRO       4   7  -1  -1   0 : 1 0
MACRO       4   8  -1  -1   0 : 2

# DPCM samples

# Detune settings

# Grooves

# Tracks using default groove
# Instruments
INST2A03   0     0  -1  -1  -1   1 "Pluck"
INST2A03   1     1  -1  -1  -1   2 "Echo"
INST2A03   2     2  -1  -1  -1   3 "Pulse Bass"
INST2A03   3     3   1  -1  -1  -1 "tri kick"
INST2A03   4     4   2  -1  -1  -1 "tri snare"
INST2A03   5     5   3  -1  -1  -1 "noise kick"
INST2A03   6     6   4  -1  -1   4 "noise snare sus"
INST2A03   7     7   4  -1  -1   4 "noise snare"
INST2A03   8     8   5  -1  -1  -1 "noise hat closed"
INST2A03   9     9   6  -1  -1  -1 "tri arp"
INST2A03  10    10  -1   1  -1   5 "lead"
INST2A03  11    11   7  -1  -1   6 "arp 135 - A"
INST2A03  12    12  -1  -1  -1   7 "plink"
INST2A03  13    12   8  -1  -1   7 "plink trill"
INST2A03  14    13   1   2  -1  -1 "tri kick note"
INST2A03  15    13   2   2  -1  -1 "tri snare note"
INST2A03  16    14  -1   2  -1  -1 "tri lead"
INST2A03  17    15  -1   1  -1   5 "lead acc"
INST2A03  18    11   9  -1  -1   6 "arp 245"
INST2A03  19    16  -1   1  -1   8 "swoopy lead"
INST2A03  20    17   4  -1  -1   4 "crash"
INST2A03  21    18  -1   4  -1   5 "dirty lead"
INST2A03  22    11  10  -1  -1   6 "arp 356b"
INST2A03  23    11  11  -1  -1   6 "arp 756"
INST2A03  24    18   8   4  -1   5 "dirty lead trill"
INST2A03  25    18  12   4  -1   5 "dirty lead aug trill"
INST2A03  26    19  13  -1  -1  -1 "tri dirty lead"
INST2A03  27    20  -1  -1  -1   1 "Pluck-A"
INST2A03  28    21  -1  -1  -1   1 "Echo-4,3,2,1"
INST2A03  29    23  -1   5  -1   3 "Pulse Bass sw30"
INST2A03  30    24   4  -1  -1   4 "noise snare sus sft"
INST2A03  31    25   5  -1  -1  -1 "noise hat closed-D"
INST2A03  32    26  -1  -1  -1   7 "plink-C"
INST2A03  33    27  -1  -1  -1   7 "plink-4"
INST2A03  34    28  -1   1  -1   5 "lead release"
INST2A03  35    10  -1   6  -1   5 "lead sw04"
INST2A03  36     2  -1   7  -1   3 "Pulse Bass Detuned"
INST2A03  37    23  -1   8  -1   3 "Tri Bass sw15"
INST2A03  38    29   7  -1  -1   6 "arp 135 - 8"
INST2A03  39    30   7  -1  -1   6 "arp 135 - 4"
INST2A03  40    29   9  -1  -1   6 "arp 245 - 8"
INST2A03  41    30   9  -1  -1   6 "arp 245 - 4"
INST2A03  42    14  -1   9  -1  -1 "tri lead slow"
INST2A03  43    14  -1  10  -1  -1 "tri lead quicker"
INST2A03  44    31  -1  11  -1   5 "lead sw03"
INST2A03  45    16  -1  12  -1   8 "swoopy sw-24"
INST2A03  46    32  -1  12  -1   8 "swoopy r sw-24"
INST2A03  47    32  -1   1  -1   8 "swoopy r"
INST2A03  48    16  -1  13  -1   8 "swoopy sw 2"
INST2A03  49    31  -1  14  -1   8 "swoopy sus"
INST2A03  50    16  -1  15  -1   8 "swoopy sw 4"
INST2A03  51    18  -1  16  -1   5 "dirty lead sw.5"
INST2A03  52    18  -1  17  -1   5 "dirty lead sw1"
INST2A03  53    14  -1  18  -1  -1 "tri lead sw1"
INST2A03  54    28  -1   7  -1   3 "Pulse Bass DetSoft"
INST2A03  55    28  -1  -1  -1   3 "Pulse Bass Soft"

# Tracks

TRACK  64   6 170 "New song"
COLUMNS : 1 1 1 1 1

ORDER 00 : 00 00 00 00 00
ORDER 01 : 01 01 00 00 00
ORDER 02 : 02 02 01 01 00
ORDER 03 : 03 03 01 01 00
ORDER 04 : 02 02 03 03 00
ORDER 05 : 03 03 03 03 01
ORDER 06 : 04 05 03 03 00
ORDER 07 : 05 06 03 03 00
ORDER 08 : 06 07 05 03 00
ORDER 09 : 07 09 04 03 00
ORDER 0A : 06 0A 07 03 00
ORDER 0B : 0A 0C 08 04 00

PATTERN 00
ROW 00 : C-3 00 F P80 : ... .. F P80 : ... .. 0 ... : ... .. 0 ... : ... .. . ...
ROW 01 : ... .. . ... : ... .. . ... : ... .. . ... : ... .. . ... : ... .. . ...
ROW 02 : D#3 1B . ... : ... .. . ... : ... .. . ... : ... .. . ... : ... .. . ...
ROW 03 : ... .. . ... : C-3 1C . ... : ... .. . ... : ... .. . ... : ... .. . ...
ROW 04 : G#3 00 . ... : ... .. . ... : ... .. . ... : ... .. . ... : ... .. . ...
ROW 05 : ... .. . ... : D#3 1C . ... : ... .. . ... : ... .. . ... : ... .. . ...
ROW 06 : G-3 00 . ... : ... .. . ... : ... .. . ... : ... .. . ... : ... .. . ...
ROW 07 : ... .. . ... : G#3 1C . ... : ... .. . ... : ... .. . ... : ... .. . ...
ROW 08 : C-3 00 . ... : ... .. . ... : ... .. . ... : ... .. . ... : ... .. . ...
ROW 09 : ... .. . ... : G-3 1C . ... : ... .. . ... : ... .. . ... : ... .. . ...
ROW 0A : D#3 1B . ... : ... .. . ... : ... .. . ... : ... .. . ... : ... .. . ...
ROW 0B : ... .. . ... : C-3 1C . ... : ... .. . ... : ... .. . ... : ... .. . ...
ROW 0C : G#3 00 . ... : ... .. . ... : ... .. . ... : ... .. . ... : ... .. . ...
ROW 0D : ... .. . ... : D#3 1C . ... : ... .. . ... : ... .. . ... : ... .. . ...
ROW 0E : G-3 00 . ... : ... .. . ... : ... .. . ... : ... .. . ... : ... .. . ...
ROW 0F : ... .. . ... : G#3 1C . ... : ... .. . ... : ... .. . ... : ... .. . ...
ROW 10 : C-3 00 . ... : ... .. . ... : ... .. . ... : ... .. . ... : ... .. . ...
ROW 11 : ... .. . ... : G-3 1C . ... : ... .. . ... : ... .. . ... : ... .. . ...
ROW 12 : D#3 1B . ... : ... .. . ... : ... .. . ... : ... .. . ... : ... .. . ...
ROW 13 : ... .. . ... : C-3 1C . ... : ... .. . ... : ... .. . ... : ... .. . ...
ROW 14 : G#3 00 . ... : ... .. . ... : ... .. . ... : ... .. . ... : ... .. . ...
ROW 15 : ... .. . ... : D#3 1C . ... : ... .. . ... : ... .. . ... : ... .. . ...
ROW 16 : G-3 00 . ... : ... .. . ... : ... .. . ... : ... .. . ... : ... .. . ...
ROW 17 : ... .. . ... : G#3 1C . ... : ... .. . ... : ... .. . ... : ... .. . ...
ROW 18 : C-3 00 . ... : ... .. . ... : ... .. . ... : ... .. . ... : ... .. . ...
ROW 19 : ... .. . ... : G-3 1C . ... : ... .. . ... : ... .. . ... : ... .. . ...
ROW 1A : D#3 1B . ... : ... .. . ... : ... .. . ... : ... .. . ... : ... .. . ...
ROW 1B : ... .. . ... : C-3 1C . ... : ... .. . ... : ... .. . ... : ... .. . ...
ROW 1C : G#3 00 . ... : ... .. . ... : ... .. . ... : ... .. . ... : ... .. . ...
ROW 1D : ... .. . ... : D#3 1C . ... : ... .. . ... : ... .. . ... : ... .. . ...
ROW 1E : G-3 00 . ... : ... .. . ... : ... .. . ... : ... .. . ... : ... .. . ...
ROW 1F : ... .. . ... : G#3 1C . ... : ... .. . ... : ... .. . ... : ... .. . ...
ROW 20 : A#2 00 . ... : ... .. . ... : ... .. . ... : ... .. . ... : ... .. . ...
ROW 21 : ... .. . ... : G-3 1C . ... : ... .. . ... : ... .. . ... : ... .. . ...
ROW 22 : D-3 1B . ... : ... .. . ... : ... .. . ... : ... .. . ... : ... .. . ...
ROW 23 : ... .. . ... : A#2 1C . ... : ... .. . ... : ... .. . ... : ... .. . ...
ROW 24 : G#3 00 . ... : ... .. . ... : ... .. . ... : ... .. . ... : ... .. . ...
ROW 25 : ... .. . ... : D-3 1C . ... : ... .. . ... : ... .. . ... : ... .. . ...
ROW 26 : G-3 00 . ... : ... .. . ... : ... .. . ... : ... .. . ... : ... .. . ...
ROW 27 : ... .. . ... : G#3 1C . ... : ... .. . ... : ... .. . ... : ... .. . ...
ROW 28 : A#2 00 . ... : ... .. . ... : ... .. . ... : ... .. . ... : ... .. . ...
ROW 29 : ... .. . ... : G-3 1C . ... : ... .. . ... : ... .. . ... : ... .. . ...
ROW 2A : D-3 1B . ... : ... .. . ... : ... .. . ... : ... .. . ... : ... .. . ...
ROW 2B : ... .. . ... : A#2 1C . ... : ... .. . ... : ... .. . ... : ... .. . ...
ROW 2C : G#3 00 . ... : ... .. . ... : ... .. . ... : ... .. . ... : ... .. . ...
ROW 2D : ... .. . ... : D-3 1C . ... : ... .. . ... : ... .. . ... : ... .. . ...
ROW 2E : G-3 00 . ... : ... .. . ... : ... .. . ... : ... .. . ... : ... .. . ...
ROW 2F : ... .. . ... : G#3 1C . ... : ... .. . ... : ... .. . ... : ... .. . ...
ROW 30 : A#2 00 . ... : ... .. . ... : ... .. . ... : ... .. . ... : ... .. . ...
ROW 31 : ... .. . ... : G-3 1C . ... : ... .. . ... : ... .. . ... : ... .. . ...
ROW 32 : D-3 1B . ... : ... .. . ... : ... .. . ... : ... .. . ... : ... .. . ...
ROW 33 : ... .. . ... : A#2 1C . ... : ... .. . ... : ... .. . ... : ... .. . ...
ROW 34 : G#3 00 . ... : ... .. . ... : ... .. . ... : ... .. . ... : ... .. . ...
ROW 35 : ... .. . ... : D-3 1C . ... : ... .. . ... : ... .. . ... : ... .. . ...
ROW 36 : G-3 00 . ... : ... .. . ... : ... .. . ... : ... .. . ... : ... .. . ...
ROW 37 : ... .. . ... : G#3 1C . ... : ... .. . ... : ... .. . ... : ... .. . ...
ROW 38 : A#2 00 . ... : ... .. . ... : ... .. . ... : ... .. . ... : ... .. . ...
ROW 39 : ... .. . ... : G-3 1C . ... : ... .. . ... : ... .. . ... : ... .. . ...
ROW 3A : D-3 1B . ... : ... .. . ... : ... .. . ... : ... .. . ... : ... .. . ...
ROW 3B : ... .. . ... : A#2 1C . ... : ... .. . ... : ... .. . ... : ... .. . ...
ROW 3C : G#3 00 . ... : ... .. . ... : ... .. . ... : ... .. . ... : ... .. . ...
ROW 3D : ... .. . ... : D-3 1C . ... : ... .. . ... : ... .. . ... : ... .. . ...
ROW 3E : G-3 00 . ... : ... .. . ... : ... .. . ... : ... .. . ... : ... .. . ...
ROW 3F : ... .. . ... : G#3 1C . ... : ... .. . ... : ... .. . ... : ... .. . ...

PATTERN 01
ROW 00 : G#2 00 F ... : ... .. F ... : C-4 03 F ... : 0-# 05 F ... : ... .. . ...
ROW 01 : ... .. . ... : G-3 1C . ... : ... .. . ... : ... .. . ... : ... .. . ...
ROW 02 : C-3 1B . ... : ... .. . ... : ... .. . ... : ... .. . ... : ... .. . ...
ROW 03 : ... .. . ... : G#2 1C . ... : ... .. . ... : ... .. . ... : ... .. . ...
ROW 04 : G#3 00 . ... : ... .. . ... : C-4 03 . ... : 0-# 05 . ... : ... .. . ...
ROW 05 : ... .. . ... : C-3 1C . ... : ... .. . ... : ... .. . ... : ... .. . ...
ROW 06 : G-3 00 . ... : ... .. . ... : ... .. . ... : ... .. . ... : ... .. . ...
ROW 07 : ... .. . ... : G#3 1C . ... : ... .. . ... : ... .. . ... : ... .. . ...
ROW 08 : G#2 00 . ... : ... .. . ... : C-4 04 . ... : 0-# 06 . ... : ... .. . ...
ROW 09 : ... .. . ... : G-3 1C . ... : ... .. . ... : ... .. . ... : ... .. . ...
ROW 0A : C-3 1B . ... : ... .. . ... : ... .. . ... : ... .. . ... : ... .. . ...
ROW 0B : ... .. . ... : G#2 1C . ... : ... .. . ... : ... .. . ... : ... .. . ...
ROW 0C : G#3 00 . ... : ... .. . ... : ... .. . ... : ... .. . ... : ... .. . ...
ROW 0D : ... .. . ... : C-3 1C . ... : ... .. . ... : ... .. . ... : ... .. . ...
ROW 0E : G-3 00 . ... : ... .. . ... : C-4 03 . ... : 0-# 05 . ... : ... .. . ...
ROW 0F : ... .. . ... : G#3 1C . ... : ... .. . ... : ... .. . ... : ... .. . ...
ROW 10 : G#2 00 . ... : ... .. . ... : ... .. . ... : ... .. . ... : ... .. . ...
ROW 11 : ... .. . ... : G-3 1C . ... : ... .. . ... : ... .. . ... : ... .. . ...
ROW 12 : C-3 1B . ... : ... .. . ... : C-4 04 . ... : 0-# 06 . ... : ... .. . ...
ROW 13 : ... .. . ... : G#2 1C . ... : ... .. . ... : ... .. . ... : ... .. . ...
ROW 14 : G#3 00 . ... : ... .. . ... : C-4 03 . ... : 0-# 05 . ... : ... .. . ...
ROW 15 : ... .. . ... : C-3 1C . ... : ... .. . ... : ... .. . ... : ... .. . ...
ROW 16 : G-3 00 . ... : ... .. . ... : ... .. . ... : ... .. . ... : ... .. . ...
ROW 17 : ... .. . ... : G#3 1C . ... : ... .. . ... : ... .. . ... : ... .. . ...
ROW 18 : G#2 00 . ... : ... .. . ... : C-4 04 . ... : 0-# 06 . ... : ... .. . ...
ROW 19 : ... .. . ... : G-3 1C . ... : ... .. . ... : ... .. . ... : ... .. . ...
ROW 1A : C-3 1B . ... : ... .. . ... : ... .. . ... : ... .. . ... : ... .. . ...
ROW 1B : ... .. . ... : G#2 1C . ... : ... .. . ... : ... .. . ... : ... .. . ...
ROW 1C : G#3 00 . ... : ... .. . ... : C-4 03 . ... : 0-# 05 . ... : ... .. . ...
ROW 1D : ... .. . ... : C-3 1C . ... : ... .. . ... : ... .. . ... : ... .. . ...
ROW 1E : G-3 00 . ... : ... .. . ... : ... .. . ... : ... .. . ... : ... .. . ...
ROW 1F : ... .. . ... : G#3 1C . ... : ... .. . ... : ... .. . ... : ... .. . ...
ROW 20 : G-2 00 F ... : ... .. . ... : C-4 03 . ... : 0-# 05 . ... : ... .. . ...
ROW 21 : ... .. . ... : G-3 1C . ... : ... .. . ... : ... .. . ... : ... .. . ...
ROW 22 : B-2 1B . ... : ... .. . ... : ... .. . ... : ... .. . ... : ... .. . ...
ROW 23 : ... .. . ... : G-2 1C . ... : ... .. . ... : ... .. . ... : ... .. . ...
ROW 24 : D#3 00 . ... : ... .. . ... : C-4 03 . ... : 0-# 05 . ... : ... .. . ...
ROW 25 : ... .. . ... : B-2 1C . ... : ... .. . ... : ... .. . ... : ... .. . ...
ROW 26 : D-3 00 . ... : ... .. . ... : ... .. . ... : ... .. . ... : ... .. . ...
ROW 27 : ... .. . ... : D#3 1C . ... : ... .. . ... : ... .. . ... : ... .. . ...
ROW 28 : F-3 00 . ... : ... .. . ... : C-4 04 . ... : 0-# 06 . ... : ... .. . ...
ROW 29 : ... .. . ... : D-3 1C . ... : ... .. . ... : ... .. . ... : ... .. . ...
ROW 2A : D#3 00 . ... : ... .. . ... : ... .. . ... : ... .. . ... : ... .. . ...
ROW 2B : ... .. . ... : F-3 1C . ... : ... .. . ... : ... .. . ... : ... .. . ...
ROW 2C : D-3 00 . ... : ... .. . ... : ... .. . ... : ... .. . ... : ... .. . ...
ROW 2D : ... .. . ... : D#3 1C . ... : ... .. . ... : ... .. . ... : ... .. . ...
ROW 2E : C-3 1B . ... : ... .. . ... : C-4 03 . ... : 0-# 05 . ... : ... .. . ...
ROW 2F : ... .. . ... : D-3 1C . ... : ... .. . ... : ... .. . ... : ... .. . ...
ROW 30 : B-2 00 . ... : ... .. . ... : ... .. . ... : ... .. . ... : ... .. . ...
ROW 31 : ... .. . ... : C-3 1C . ... : ... .. . ... : ... .. . ... : ... .. . ...
ROW 32 : G-2 1B . ... : ... .. . ... : C-4 04 . ... : 0-# 06 . ... : ... .. . ...
ROW 33 : ... .. . ... : B-2 1C . ... : ... .. . ... : ... .. . ... : ... .. . ...
ROW 34 : F-2 1B . ... : ... .. . ... : C-4 03 . ... : 0-# 05 . ... : ... .. . ...
ROW 35 : ... .. . ... : G-2 1C . ... : ... .. . ... : ... .. . ... : ... .. . ...
ROW 36 : D-2 00 . ... : ... .. . ... : ... .. . ... : ... .. . ... : ... .. . ...
ROW 37 : ... .. . ... : F-2 1C . ... : ... .. . ... : ... .. . ... : ... .. . ...
ROW 38 : B-1 00 . ... : ... .. . ... : C-4 04 . ... : 0-# 06 . ... : ... .. . ...
ROW 39 : ... .. . ... : D-2 1C . ... : ... .. . ... : ... .. . ... : ... .. . ...
ROW 3A : G-1 00 . ... : ... .. . ... : ... .. . ... : ... .. . ... : ... .. . ...
ROW 3B : ... .. . ... : B-1 1C . ... : ... .. . ... : ... .. . ... : ... .. . ...
ROW 3C : F-1 00 . ... : ... .. . ... : ... .. . ... : ... .. . ... : ... .. . ...
ROW 3D : ... .. . ... : G-1 1C . ... : ... .. . ... : ... .. . ... : ... .. . ...
ROW 3E : D-1 00 . ... : ... .. . ... : ... .. . ... : ... .. . ... : ... .. . ...
ROW 3F : ... .. . ... : F-1 1C . ... : ... .. . ... : ... .. . ... : ... .. . ...

PATTERN 02
ROW 00 : C-1 02 F ... : C-3 1B F ... : ... .. . ... : ... .. . ... : ... .. . ...
ROW 01 : ... .. . ... : D-1 1C . ... : ... .. . ... : ... .. . ... : ... .. . ...
ROW 02 : D#3 1B . ... : ... .. . ... : ... .. . ... : ... .. . ... : ... .. . ...
ROW 03 : ... .. . ... : C-3 1C . ... : ... .. . ... : ... .. . ... : ... .. . ...
ROW 04 : C-1 02 . ... : G#3 1B . ... : ... .. . ... : ... .. . ... : ... .. . ...
ROW 05 : ... .. . ... : D#3 1C . ... : ... .. . ... : ... .. . ... : ... .. . ...
ROW 06 : C-1 1D . ... : G-3 1B . ... : ... .. . ... : ... .. . ... : ... .. . ...
ROW 07 : ... .. . ... : G#3 1C . ... : ... .. . ... : ... .. . ... : ... .. . ...
ROW 08 : C-2 02 . ... : C-3 1B . ... : ... .. . ... : ... .. . ... : ... .. . ...
ROW 09 : ... .. . ... : G-3 1C . ... : ... .. . ... : ... .. . ... : ... .. . ...
ROW 0A : C-1 02 . ... : D#3 1B . ... : ... .. . ... : ... .. . ... : ... .. . ...
ROW 0B : ... .. . ... : C-3 1C . ... : ... .. . ... : ... .. . ... : ... .. . ...
ROW 0C : G#3 1B . ... : ... .. . ... : ... .. . ... : ... .. . ... : ... .. . ...
ROW 0D : ... .. . ... : D#3 1C . ... : ... .. . ... : ... .. . ... : ... .. . ...
ROW 0E : C-1 02 . ... : G-3 1B . ... : ... .. . ... : ... .. . ... : ... .. . ...
ROW 0F : ... .. . ... : G#3 1C . ... : ... .. . ... : ... .. . ... : ... .. . ...
ROW 10 : C-3 1B . ... : ... .. . ... : ... .. . ... : ... .. . ... : ... .. . ...
ROW 11 : ... .. . ... : G-3 1C . ... : ... .. . ... : ... .. . ... : ... .. . ...
ROW 12 : D#3 1B . ... : ... .. . ... : ... .. . ... : ... .. . ... : ... .. . ...
ROW 13 : ... .. . ... : C-3 1C . ... : ... .. . ... : ... .. . ... : ... .. . ...
ROW 14 : G#3 1B . ... : ... .. . ... : ... .. . ... : ... .. . ... : ... .. . ...
ROW 15 : ... .. . ... : D#3 1C . ... : ... .. . ... : ... .. . ... : ... .. . ...
ROW 16 : G-3 1B . ... : ... .. . ... : ... .. . ... : ... .. . ... : ... .. . ...
ROW 17 : ... .. . ... : G#3 1C . ... : ... .. . ... : ... .. . ... : ... .. . ...
ROW 18 : C-3 1B . ... : ... .. . ... : ... .. . ... : ... .. . ... : ... .. . ...
ROW 19 : ... .. . ... : G-3 1C . ... : ... .. . ... : ... .. . ... : ... .. . ...
ROW 1A : D#3 1B . ... : ... .. . ... : ... .. . ... : ... .. . ... : ... .. . ...
ROW 1B : ... .. . ... : C-3 1C . ... : ... .. . ... : ... .. . ... : ... .. . ...
ROW 1C : A#0 02 . ... : G#3 1B . ... : ... .. . ... : ... .. . ... : ... .. . ...
ROW 1D : ... .. . ... : D#3 1C . ... : ... .. . ... : ... .. . ... : ... .. . ...
ROW 1E : B-0 02 . ... : G-3 1B . ... : ... .. . ... : ... .. . ... : ... .. . ...
ROW 1F : ... .. . ... : G#3 1C . ... : ... .. . ... : ... .. . ... : ... .. . ...
ROW 20 : C-1 02 . ... : A#2 1B . ... : ... .. . ... : ... .. . ... : ... .. . ...
ROW 21 : ... .. . ... : G-3 1C . ... : ... .. . ... : ... .. . ... : ... .. . ...
ROW 22 : D-3 1B . ... : ... .. . ... : ... .. . ... : ... .. . ... : ... .. . ...
ROW 23 : ... .. . ... : A#2 1C . ... : ... .. . ... : ... .. . ... : ... .. . ...
ROW 24 : C-1 02 . ... : G#3 1B . ... : ... .. . ... : ... .. . ... : ... .. . ...
ROW 25 : ... .. . ... : D-3 1C . ... : ... .. . ... : ... .. . ... : ... .. . ...
ROW 26 : C-1 1D . ... : G-3 1B . ... : ... .. . ... : ... .. . ... : ... .. . ...
ROW 27 : ... .. . ... : G#3 1C . ... : ... .. . ... : ... .. . ... : ... .. . ...
ROW 28 : C-2 02 . ... : A#2 1B . ... : ... .. . ... : ... .. . ... : ... .. . ...
ROW 29 : ... .. . ... : G-3 1C . ... : ... .. . ... : ... .. . ... : ... .. . ...
ROW 2A : C-1 02 . ... : D-3 1B . ... : ... .. . ... : ... .. . ... : ... .. . ...
ROW 2B : ... .. . ... : A#2 1C . ... : ... .. . ... : ... .. . ... : ... .. . ...
ROW 2C : G#3 1B . ... : ... .. . ... : ... .. . ... : ... .. . ... : ... .. . ...
ROW 2D : ... .. . ... : D-3 1C . ... : ... .. . ... : ... .. . ... : ... .. . ...
ROW 2E : C-1 02 . ... : G-3 1B . ... : ... .. . ... : ... .. . ... : ... .. . ...
ROW 2F : ... .. . ... : G#3 1C . ... : ... .. . ... : ... .. . ... : ... .. . ...
ROW 30 : A#2 1B . ... : ... .. . ... : ... .. . ... : ... .. . ... : ... .. . ...
ROW 31 : ... .. . ... : G-3 1C . ... : ... .. . ... : ... .. . ... : ... .. . ...
ROW 32 : D-3 1B . ... : ... .. . ... : ... .. . ... : ... .. . ... : ... .. . ...
ROW 33 : ... .. . ... : A#2 1C . ... : ... .. . ... : ... .. . ... : ... .. . ...
ROW 34 : G#3 1B . ... : ... .. . ... : ... .. . ... : ... .. . ... : ... .. . ...
ROW 35 : ... .. . ... : D-3 1C . ... : ... .. . ... : ... .. . ... : ... .. . ...
ROW 36 : G-3 1B . ... : ... .. . ... : ... .. . ... : ... .. . ... : ... .. . ...
ROW 37 : ... .. . ... : G#3 1C . ... : ... .. . ... : ... .. . ... : ... .. . ...
ROW 38 : A#2 1B . ... : ... .. . ... : ... .. . ... : ... .. . ... : ... .. . ...
ROW 39 : ... .. . ... : G-3 1C . ... : ... .. . ... : ... .. . ... : ... .. . ...
ROW 3A : D-3 1B . ... : ... .. . ... : ... .. . ... : ... .. . ... : ... .. . ...
ROW 3B : ... .. . ... : A#2 1C . ... : ... .. . ... : ... .. . ... : ... .. . ...
ROW 3C : G#3 1B . ... : ... .. . ... : ... .. . ... : ... .. . ... : ... .. . ...
ROW 3D : ... .. . ... : D-3 1C . ... : ... .. . ... : ... .. . ... : ... .. . ...
ROW 3E : G-3 1B . ... : ... .. . ... : ... .. . ... : ... .. . ... : ... .. . ...
ROW 3F : ... .. . ... : G#3 1C . ... : ... .. . ... : ... .. . ... : ... .. . ...

PATTERN 03
ROW 00 : G#1 02 F ... : G#2 1B F ... : C-4 03 F ... : 0-# 05 F ... : ... .. . ...
ROW 01 : ... .. . ... : G-3 1C . ... : ... .. . ... : ... .. . ... : ... .. . ...
ROW 02 : C-3 1B . ... : ... .. . ... : ... .. . ... : ... .. . ... : ... .. . ...
ROW 03 : ... .. . ... : G#2 1C . ... : ... .. . ... : ... .. . ... : ... .. . ...
ROW 04 : G#1 02 . ... : G#3 1B . ... : C-4 03 . ... : 0-# 05 . ... : ... .. . ...
ROW 05 : ... .. . ... : C-3 1C . ... : ... .. . ... : ... .. . ... : ... .. . ...
ROW 06 : G#1 1D . ... : G-3 1B . ... : ... .. . ... : ... .. . ... : ... .. . ...
ROW 07 : ... .. . ... : G#3 1C . ... : ... .. . ... : ... .. . ... : ... .. . ...
ROW 08 : G#2 02 . ... : G#2 1B . ... : C-4 04 . ... : 0-# 06 . ... : ... .. . ...
ROW 09 : ... .. . ... : G-3 1C . ... : ... .. . ... : ... .. . ... : ... .. . ...
ROW 0A : G#1 02 . ... : C-3 1B . ... : ... .. . ... : ... .. . ... : ... .. . ...
ROW 0B : ... .. . ... : G#2 1C . ... : ... .. . ... : ... .. . ... : ... .. . ...
ROW 0C : G#3 1B . ... : ... .. . ... : ... .. . ... : 0-# 1F . ... : ... .. . ...
ROW 0D : ... .. . ... : C-3 1C . ... : ... .. . ... : ... .. . ... : ... .. . ...
ROW 0E : G#1 02 . ... : G-3 1B . ... : C-4 04 . ... : 0-# 1E . ... : ... .. . ...
ROW 0F : ... .. . ... : G#3 1C . ... : ... .. . ... : ... .. . ... : ... .. . ...
ROW 10 : G#2 1B . ... : ... .. . ... : ... .. . ... : 0-# 08 . ... : ... .. . ...
ROW 11 : ... .. . ... : G-3 1C . ... : ... .. . ... : ... .. . ... : ... .. . ...
ROW 12 : C-3 1B . ... : ... .. . ... : C-4 04 . ... : 0-# 1E . ... : ... .. . ...
ROW 13 : ... .. . ... : G#2 1C . ... : ... .. . ... : ... .. . ... : ... .. . ...
ROW 14 : G#3 1B . ... : ... .. . ... : C-4 03 . ... : 0-# 05 . ... : ... .. . ...
ROW 15 : ... .. . ... : C-3 1C . ... : ... .. . ... : ... .. . ... : ... .. . ...
ROW 16 : G-3 1B . ... : ... .. . ... : ... .. . ... : ... .. . ... : ... .. . ...
ROW 17 : ... .. . ... : G#3 1C . ... : ... .. . ... : ... .. . ... : ... .. . ...
ROW 18 : G#2 1B . ... : ... .. . ... : C-4 04 . ... : 0-# 06 . ... : ... .. . ...
ROW 19 : ... .. . ... : G-3 1C . ... : ... .. . ... : ... .. . ... : ... .. . ...
ROW 1A : C-3 1B . ... : ... .. . ... : ... .. . ... : ... .. . ... : ... .. . ...
ROW 1B : ... .. . ... : G#2 1C . ... : ... .. . ... : ... .. . ... : ... .. . ...
ROW 1C : F-1 02 . ... : G#3 1B . ... : ... .. . ... : 0-# 08 . ... : ... .. . ...
ROW 1D : ... .. . ... : C-3 1C . ... : ... .. . ... : ... .. . ... : ... .. . ...
ROW 1E : F#1 02 . ... : G-3 1B . ... : C-4 04 . ... : 0-# 1E . ... : ... .. . ...
ROW 1F : ... .. . ... : G#3 1C . ... : ... .. . ... : ... .. . ... : ... .. . ...
ROW 20 : G-1 02 . ... : G-2 1B . ... : C-4 03 F ... : 0-# 05 . ... : ... .. . ...
ROW 21 : ... .. . ... : G-3 1C . ... : ... .. . ... : ... .. . ... : ... .. . ...
ROW 22 : B-2 1B . ... : ... .. . ... : ... .. . ... : ... .. . ... : ... .. . ...
ROW 23 : ... .. . ... : G-2 1C . ... : ... .. . ... : ... .. . ... : ... .. . ...
ROW 24 : G-1 02 . ... : G#3 1B . ... : C-4 03 . ... : 0-# 05 . ... : ... .. . ...
ROW 25 : ... .. . ... : B-2 1C . ... : ... .. . ... : ... .. . ... : ... .. . ...
ROW 26 : G-1 1D . ... : G-3 1B . ... : ... .. . ... : ... .. . ... : ... .. . ...
ROW 27 : ... .. . ... : G#3 1C . ... : ... .. . ... : ... .. . ... : ... .. . ...
ROW 28 : G-2 02 . ... : G-2 1B . ... : C-4 04 . ... : 0-# 06 . ... : ... .. . ...
ROW 29 : ... .. . ... : G-3 1C . ... : ... .. . ... : ... .. . ... : ... .. . ...
ROW 2A : G-1 02 . ... : B-2 1B . ... : ... .. . ... : ... .. . ... : ... .. . ...
ROW 2B : ... .. . ... : G-2 1C . ... : ... .. . ... : ... .. . ... : ... .. . ...
ROW 2C : G#3 1B . ... : ... .. . ... : ... .. . ... : 0-# 1F . ... : ... .. . ...
ROW 2D : ... .. . ... : B-2 1C . ... : ... .. . ... : ... .. . ... : ... .. . ...
ROW 2E : G-1 02 . ... : G-3 1B . ... : C-4 04 . ... : 0-# 1E . ... : ... .. . ...
ROW 2F : ... .. . ... : G#3 1C . ... : ... .. . ... : ... .. . ... : ... .. . ...
ROW 30 : G-2 1B . ... : ... .. . ... : ... .. . ... : 0-# 08 . ... : ... .. . ...
ROW 31 : ... .. . ... : G-3 1C . ... : ... .. . ... : ... .. . ... : ... .. . ...
ROW 32 : B-2 1B . ... : ... .. . ... : C-4 04 . ... : 0-# 1E . ... : ... .. . ...
ROW 33 : ... .. . ... : G-2 1C . ... : ... .. . ... : ... .. . ... : ... .. . ...
ROW 34 : G#3 1B . ... : ... .. . ... : C-4 03 . ... : 0-# 05 . ... : ... .. . ...
ROW 35 : ... .. . ... : B-2 1C . ... : ... .. . ... : ... .. . ... : ... .. . ...
ROW 36 : G-3 1B . ... : ... .. . ... : ... .. . ... : ... .. . ... : ... .. . ...
ROW 37 : ... .. . ... : G#3 1C . ... : ... .. . ... : ... .. . ... : ... .. . ...
ROW 38 : G-1 02 . ... : G-2 1B . ... : C-4 04 . ... : 0-# 06 . ... : ... .. . ...
ROW 39 : ... .. . ... : G-3 1C . ... : ... .. . ... : ... .. . ... : ... .. . ...
ROW 3A : F-1 02 . ... : B-2 1B . ... : ... .. . ... : ... .. . ... : ... .. . ...
ROW 3B : ... .. . ... : G-2 1C . ... : ... .. . ... : ... .. . ... : ... .. . ...
ROW 3C : A#0 02 . ... : G#3 1B . ... : ... .. . ... : 0-# 08 . ... : ... .. . ...
ROW 3D : ... .. . ... : B-2 1C . ... : ... .. . ... : ... .. . ... : ... .. . ...
ROW 3E : B-0 02 . ... : G-3 1B . ... : C-4 04 . ... : 0-# 1E . ... : ... .. . ...
ROW 3F : ... .. . ... : G#3 1C . ... : ... .. . ... : ... .. . ... : ... .. . ...

PATTERN 04
ROW 00 : C-1 02 F ... : C-1 02 8 P84 : F-4 2A F ... : 0-# 05 F ... : ... .. . ...
ROW 01 : ... .. . ... : ... .. . ... : ... .. . ... : ... .. . ... : ... .. . ...
ROW 02 : --- 00 . ... : --- 00 . ... : G-4 10 . ... : ... .. . ... : ... .. . ...
ROW 03 : ... .. . ... : ... .. . ... : ... .. . ... : ... .. . ... : ... .. . ...
ROW 04 : C-1 02 F ... : C-1 02 8 ... : ... .. . ... : 0-# 05 . ... : ... .. . ...
ROW 05 : ... .. . ... : ... .. . ... : ... .. . ... : ... .. . ... : ... .. . ...
ROW 06 : C-1 1D F ... : ... .. . 130 : ... .. . ... : ... .. . ... : ... .. . ...
ROW 07 : ... .. . ... : ... .. . ... : ... .. . ... : ... .. . ... : ... .. . ...
ROW 08 : C-2 02 F ... : C-2 02 8 100 : ... .. . ... : 0-# 06 . ... : ... .. . ...
ROW 09 : ... .. . ... : ... .. . ... : ... .. . ... : ... .. . ... : ... .. . ...
ROW 0A : C-1 02 F ... : C-1 02 8 ... : ... .. . ... : ... .. . ... : ... .. . ...
ROW 0B : ... .. . ... : ... .. . ... : ... .. . ... : ... .. . ... : ... .. . ...
ROW 0C : --- 00 . ... : --- 00 . ... : ... .. . ... : 0-# 1F . ... : ... .. . ...
ROW 0D : ... .. . ... : ... .. . ... : ... .. . ... : ... .. . ... : ... .. . ...
ROW 0E : C-1 02 F ... : C-1 02 8 ... : ... .. . ... : 0-# 1E . ... : ... .. . ...
ROW 0F : ... .. . ... : ... .. . ... : ... .. . ... : ... .. . ... : ... .. . ...
ROW 10 : --- .. . ... : --- .. . ... : ... .. . ... : 0-# 08 . ... : ... .. . ...
ROW 11 : ... .. . ... : ... .. . ... : ... .. . ... : ... .. . ... : ... .. . ...
ROW 12 : ... .. . ... : ... .. . ... : C-4 0F . ... : 0-# 1E . ... : ... .. . ...
ROW 13 : ... .. . ... : ... .. . ... : ... .. . ... : ... .. . ... : ... .. . ...
ROW 14 : ... .. . ... : ... .. . ... : D-4 0E . ... : 0-# 05 . ... : ... .. . ...
ROW 15 : ... .. . ... : ... .. . ... : --- .. . ... : ... .. . ... : ... .. . ...
ROW 16 : ... .. . ... : ... .. . ... : D-4 2A . ... : ... .. . ... : ... .. . ...
ROW 17 : ... .. . ... : ... .. . ... : ... .. . ... : ... .. . ... : ... .. . ...
ROW 18 : ... .. . ... : ... .. . ... : D#4 0F . ... : 0-# 06 . ... : ... .. . ...
ROW 19 : ... .. . ... : ... .. . ... : ... .. . ... : ... .. . ... : ... .. . ...
ROW 1A : ... .. . ... : ... .. . ... : F-4 10 . ... : ... .. . ... : ... .. . ...
ROW 1B : ... .. . ... : ... .. . ... : --- .. . ... : ... .. . ... : ... .. . ...
ROW 1C : ... .. . ... : ... .. . ... : G-4 10 . ... : 0-# 08 . ... : ... .. . ...
ROW 1D : ... .. . ... : ... .. . ... : ... .. . ... : ... .. . ... : ... .. . ...
ROW 1E : ... .. . ... : ... .. . ... : C-4 0F . ... : 0-# 1E . ... : ... .. . ...
ROW 1F : ... .. . ... : ... .. . ... : --- .. . ... : ... .. . ... : ... .. . ...
ROW 20 : D-1 02 F ... : D-1 02 8 ... : G#4 0E . ... : 0-# 05 . ... : ... .. . ...
ROW 21 : ... .. . ... : ... .. . ... : ... .. . ... : ... .. . ... : ... .. . ...
ROW 22 : --- 00 . ... : --- 00 . ... : ... .. . ... : ... .. . ... : ... .. . ...
ROW 23 : ... .. . ... : ... .. . ... : ... .. . ... : ... .. . ... : ... .. . ...
ROW 24 : D-1 02 F ... : D-1 02 8 ... : ... .. . ... : 0-# 05 . ... : ... .. . ...
ROW 25 : ... .. . ... : ... .. . ... : G#4 2B . ... : ... .. . ... : ... .. . ...
ROW 26 : D-1 1D F ... : ... .. . 130 : ... .. . ... : ... .. . ... : ... .. . ...
ROW 27 : ... .. . ... : ... .. . ... : ... .. . ... : ... .. . ... : ... .. . ...
ROW 28 : D-2 02 F ... : D-2 02 8 100 : C-3 04 . ... : 0-# 06 . ... : ... .. . ...
ROW 29 : ... .. . ... : ... .. . ... : ... .. . ... : ... .. . ... : ... .. . ...
ROW 2A : D-1 02 F ... : D-1 02 8 ... : G#4 10 . ... : ... .. . ... : ... .. . ...
ROW 2B : ... .. . ... : ... .. . ... : ... .. . ... : ... .. . ... : ... .. . ...
ROW 2C : --- 00 . ... : --- 00 . ... : G-4 10 . ... : 0-# 1F . ... : ... .. . ...
ROW 2D : ... .. . ... : ... .. . ... : ... .. . ... : ... .. . ... : ... .. . ...
ROW 2E : D-1 02 F ... : D-1 02 8 ... : F-4 0F . ... : 0-# 1E . ... : ... .. . ...
ROW 2F : ... .. . ... : ... .. . ... : ... .. . ... : ... .. . ... : ... .. . ...
ROW 30 : --- .. . ... : --- .. . ... : G-4 10 . ... : 0-# 14 . ... : ... .. . ...
ROW 31 : ... .. . ... : ... .. . ... : G#4 10 . ... : ... .. . ... : ... .. . ...
ROW 32 : ... .. . ... : ... .. . ... : G-4 0F . ... : ... .. . ... : ... .. . ...
ROW 33 : ... .. . ... : ... .. . ... : ... .. . ... : ... .. . ... : ... .. . ...
ROW 34 : ... .. . ... : ... .. . ... : ... .. . ... : ... .. . ... : ... .. . ...
ROW 35 : ... .. . ... : ... .. . ... : ... .. . ... : ... .. . ... : ... .. . ...
ROW 36 : ... .. . ... : ... .. . ... : ... .. . ... : ... .. . ... : ... .. . ...
ROW 37 : ... .. . ... : ... .. . ... : ... .. . ... : ... .. . ... : ... .. . ...
ROW 38 : ... .. . ... : ... .. . ... : C-3 04 . ... : ... .. . ... : ... .. . ...
ROW 39 : ... .. . ... : ... .. . ... : ... .. . ... : ... .. . ... : ... .. . ...
ROW 3A : ... .. . ... : ... .. . ... : G-4 10 . ... : ... .. . ... : ... .. . ...
ROW 3B : ... .. . ... : ... .. . ... : F-4 10 . ... : ... .. . ... : ... .. . ...
ROW 3C : ... .. . ... : ... .. . ... : A#3 10 . ... : ... .. . ... : ... .. . ...
ROW 3D : ... .. . ... : ... .. . ... : --- .. . ... : ... .. . ... : ... .. . ...
ROW 3E : ... .. . ... : ... .. . ... : B-3 0F . ... : ... .. . ... : ... .. . ...
ROW 3F : ... .. . ... : ... .. . P80 : --- .. . ... : ... .. . ... : ... .. . ...

PATTERN 05
ROW 00 : D#1 02 F ... : G-1 02 F ... : C-2 0E F ... : ... .. . ... : ... .. . ...
ROW 01 : ... .. . ... : ... .. . ... : ... .. . ... : ... .. . ... : ... .. . ...
ROW 02 : --- 00 . ... : --- 00 . ... : --- 00 . ... : ... .. . ... : ... .. . ...
ROW 03 : ... .. . ... : ... .. . ... : ... .. . ... : ... .. . ... : ... .. . ...
ROW 04 : D#1 02 F ... : G-1 02 F ... : C-2 0E F ... : ... .. . ... : ... .. . ...
ROW 05 : ... .. . ... : ... .. . ... : ... .. . ... : ... .. . ... : ... .. . ...
ROW 06 : D#1 1D F ... : G-1 1D F ... : C-2 25 F ... : ... .. . ... : ... .. . ...
ROW 07 : ... .. . ... : ... .. . ... : ... .. . ... : ... .. . ... : ... .. . ...
ROW 08 : D#2 02 F ... : G-2 02 F ... : C-3 0F F ... : ... .. . ... : ... .. . ...
ROW 09 : ... .. . ... : ... .. . ... : ... .. . ... : ... .. . ... : ... .. . ...
ROW 0A : D#1 02 F ... : G-1 02 F ... : C-2 02 F ... : ... .. . ... : ... .. . ...
ROW 0B : ... .. . ... : ... .. . ... : ... .. . ... : ... .. . ... : ... .. . ...
ROW 0C : --- 00 . ... : --- 00 . ... : --- 0F . ... : ... .. . ... : ... .. . ...
ROW 0D : ... .. . ... : ... .. . ... : ... .. . ... : ... .. . ... : ... .. . ...
ROW 0E : D#1 02 F ... : G-1 02 F ... : C-2 0F F ... : ... .. . ... : ... .. . ...
ROW 0F : ... .. . ... : ... .. . ... : ... .. . ... : ... .. . ... : ... .. . ...
ROW 10 : --- .. . ... : C-5 20 F ... : --- .. . ... : ... .. . ... : ... .. . ...
ROW 11 : ... .. . ... : C-5 21 F ... : ... .. . ... : ... .. . ... : ... .. . ...
ROW 12 : ... .. . ... : D#5 20 F ... : C-3 04 . ... : ... .. . ... : ... .. . ...
ROW 13 : ... .. . ... : C-5 21 F ... : ... .. . ... : ... .. . ... : ... .. . ...
ROW 14 : ... .. . ... : G#5 20 F ... : C-3 03 . ... : ... .. . ... : ... .. . ...
ROW 15 : ... .. . ... : D#5 21 F ... : ... .. . ... : ... .. . ... : ... .. . ...
ROW 16 : ... .. . ... : G-5 20 F ... : ... .. . ... : ... .. . ... : ... .. . ...
ROW 17 : ... .. . ... : G#5 21 F ... : ... .. . ... : ... .. . ... : ... .. . ...
ROW 18 : ... .. . ... : C-5 20 F ... : C-3 04 . ... : ... .. . ... : ... .. . ...
ROW 19 : ... .. . ... : G-5 21 F ... : ... .. . ... : ... .. . ... : ... .. . ...
ROW 1A : ... .. . ... : D#5 20 F ... : ... .. . ... : ... .. . ... : ... .. . ...
ROW 1B : ... .. . ... : C-5 21 F ... : ... .. . ... : ... .. . ... : ... .. . ...
ROW 1C : ... .. . ... : G#5 20 F ... : ... .. . ... : ... .. . ... : ... .. . ...
ROW 1D : ... .. . ... : D#5 21 F ... : ... .. . ... : ... .. . ... : ... .. . ...
ROW 1E : ... .. . ... : G-5 20 F ... : C-3 04 . ... : ... .. . ... : ... .. . ...
ROW 1F : ... .. . ... : G#5 21 F ... : ... .. . ... : ... .. . ... : ... .. . ...
ROW 20 : F-1 02 F ... : G-1 02 F ... : D-2 0E F ... : ... .. . ... : ... .. . ...
ROW 21 : ... .. . ... : ... .. . ... : ... .. . ... : ... .. . ... : ... .. . ...
ROW 22 : --- 00 . ... : --- 00 . ... : --- 00 . ... : ... .. . ... : ... .. . ...
ROW 23 : ... .. . ... : ... .. . ... : ... .. . ... : ... .. . ... : ... .. . ...
ROW 24 : F-1 02 F ... : G-1 02 F ... : D-2 0E F ... : ... .. . ... : ... .. . ...
ROW 25 : ... .. . ... : ... .. . ... : ... .. . ... : ... .. . ... : ... .. . ...
ROW 26 : F-1 1D F ... : G-1 1D F ... : D-2 25 F ... : ... .. . ... : ... .. . ...
ROW 27 : ... .. . ... : ... .. . ... : ... .. . ... : ... .. . ... : ... .. . ...
ROW 28 : F-2 02 F ... : G-2 02 F ... : D-3 0F F ... : ... .. . ... : ... .. . ...
ROW 29 : ... .. . ... : ... .. . ... : ... .. . ... : ... .. . ... : ... .. . ...
ROW 2A : F-1 02 F ... : G-1 02 F ... : D-2 02 F ... : ... .. . ... : ... .. . ...
ROW 2B : ... .. . ... : ... .. . ... : ... .. . ... : ... .. . ... : ... .. . ...
ROW 2C : --- 00 . ... : --- 00 . ... : --- 00 . ... : ... .. . ... : ... .. . ...
ROW 2D : ... .. . ... : ... .. . ... : ... .. . ... : ... .. . ... : ... .. . ...
ROW 2E : F-1 02 F ... : G-1 02 F ... : D-2 0F F ... : ... .. . ... : ... .. . ...
ROW 2F : ... .. . ... : ... .. . ... : ... .. . ... : ... .. . ... : ... .. . ...
ROW 30 : --- .. . ... : C-5 20 F ... : --- .. . ... : ... .. . ... : ... .. . ...
ROW 31 : ... .. . ... : C-5 21 F ... : ... .. . ... : ... .. . ... : ... .. . ...
ROW 32 : ... .. . ... : D#5 20 F ... : C-3 04 . ... : ... .. . ... : ... .. . ...
ROW 33 : ... .. . ... : C-5 21 F ... : ... .. . ... : ... .. . ... : ... .. . ...
ROW 34 : ... .. . ... : G#5 20 F ... : C-3 03 . ... : ... .. . ... : ... .. . ...
ROW 35 : ... .. . ... : D#5 21 F ... : ... .. . ... : ... .. . ... : ... .. . ...
ROW 36 : ... .. . ... : G-5 20 F ... : ... .. . ... : ... .. . ... : ... .. . ...
ROW 37 : ... .. . ... : G#5 21 F ... : ... .. . ... : ... .. . ... : ... .. . ...
ROW 38 : ... .. . ... : C-5 20 F ... : C-3 04 . ... : ... .. . ... : ... .. . ...
ROW 39 : ... .. . ... : G-5 21 F ... : ... .. . ... : ... .. . ... : ... .. . ...
ROW 3A : ... .. . ... : D#5 20 F ... : ... .. . ... : ... .. . ... : ... .. . ...
ROW 3B : ... .. . ... : C-5 21 F ... : ... .. . ... : ... .. . ... : ... .. . ...
ROW 3C : ... .. . ... : G#5 20 F ... : ... .. . ... : ... .. . ... : ... .. . ...
ROW 3D : ... .. . ... : D#5 21 F ... : ... .. . ... : ... .. . ... : ... .. . ...
ROW 3E : ... .. . ... : G-5 20 F ... : C-3 04 . ... : ... .. . ... : ... .. . ...
ROW 3F : ... .. . ... : G#5 21 F ... : ... .. . ... : ... .. . ... : ... .. . ...

PATTERN 06
ROW 00 : C-1 24 F ... : G-1 02 F ... : ... .. . ... : ... .. . ... : ... .. . ...
ROW 01 : ... .. . ... : ... .. . ... : ... .. . ... : ... .. . ... : ... .. . ...
ROW 02 : --- 00 . ... : --- 00 . ... : ... .. . ... : ... .. . ... : ... .. . ...
ROW 03 : ... .. . ... : ... .. . ... : ... .. . ... : ... .. . ... : ... .. . ...
ROW 04 : C-1 24 F ... : G-1 02 F ... : ... .. . ... : ... .. . ... : ... .. . ...
ROW 05 : ... .. . ... : ... .. . ... : ... .. . ... : ... .. . ... : ... .. . ...
ROW 06 : C-1 1D F ... : G-1 1D . ... : ... .. . ... : ... .. . ... : ... .. . ...
ROW 07 : ... .. . ... : ... .. . ... : ... .. . ... : ... .. . ... : ... .. . ...
ROW 08 : C-3 0B F ... : G-2 02 F ... : ... .. . ... : ... .. . ... : ... .. . ...
ROW 09 : ... .. . ... : ... .. . ... : ... .. . ... : ... .. . ... : ... .. . ...
ROW 0A : C-3 26 F ... : G-1 02 F ... : ... .. . ... : ... .. . ... : ... .. . ...
ROW 0B : ... .. . ... : ... .. . ... : ... .. . ... : ... .. . ... : ... .. . ...
ROW 0C : C-3 27 F ... : --- 00 . ... : ... .. . ... : ... .. . ... : ... .. . ...
ROW 0D : ... .. . ... : ... .. . ... : ... .. . ... : ... .. . ... : ... .. . ...
ROW 0E : C-1 24 F ... : G-1 02 F ... : ... .. . ... : ... .. . ... : ... .. . ...
ROW 0F : ... .. . ... : ... .. . ... : ... .. . ... : ... .. . ... : ... .. . ...
ROW 10 : --- .. . ... : C-5 20 F ... : ... .. . ... : ... .. . ... : ... .. . ...
ROW 11 : ... .. . ... : C-5 21 F ... : ... .. . ... : ... .. . ... : ... .. . ...
ROW 12 : C-3 0B F ... : D#5 20 F ... : ... .. . ... : ... .. . ... : ... .. . ...
ROW 13 : ... .. . ... : C-5 21 F ... : ... .. . ... : ... .. . ... : ... .. . ...
ROW 14 : ... .. . ... : G#5 20 F ... : ... .. . ... : ... .. . ... : ... .. . ...
ROW 15 : ... .. . ... : D#5 21 F ... : ... .. . ... : ... .. . ... : ... .. . ...
ROW 16 : C-3 27 F ... : G-5 20 F ... : ... .. . ... : ... .. . ... : ... .. . ...
ROW 17 : C-3 26 F ... : G#5 21 F ... : ... .. . ... : ... .. . ... : ... .. . ...
ROW 18 : C-3 0B F ... : C-5 20 F ... : ... .. . ... : ... .. . ... : ... .. . ...
ROW 19 : ... .. . ... : G-5 21 F ... : ... .. . ... : ... .. . ... : ... .. . ...
ROW 1A : C-3 27 F ... : D#5 20 F ... : ... .. . ... : ... .. . ... : ... .. . ...
ROW 1B : ... .. . ... : C-5 21 F ... : ... .. . ... : ... .. . ... : ... .. . ...
ROW 1C : C-3 0B F ... : G#5 20 F ... : ... .. . ... : ... .. . ... : ... .. . ...
ROW 1D : C-3 26 F ... : D#5 21 F ... : ... .. . ... : ... .. . ... : ... .. . ...
ROW 1E : C-3 27 F ... : G-5 20 F ... : ... .. . ... : ... .. . ... : ... .. . ...
ROW 1F : ... .. . ... : G#5 21 F ... : ... .. . ... : ... .. . ... : ... .. . ...
ROW 20 : D-1 24 F ... : G-1 02 F ... : ... .. . ... : ... .. . ... : ... .. . ...
ROW 21 : ... .. . ... : ... .. . ... : ... .. . ... : ... .. . ... : ... .. . ...
ROW 22 : --- 00 . ... : --- 00 . ... : ... .. . ... : ... .. . ... : ... .. . ...
ROW 23 : ... .. . ... : ... .. . ... : ... .. . ... : ... .. . ... : ... .. . ...
ROW 24 : D-3 12 F ... : G-1 02 F ... : ... .. . ... : ... .. . ... : ... .. . ...
ROW 25 : D-3 28 F ... : ... .. . ... : ... .. . ... : ... .. . ... : ... .. . ...
ROW 26 : D-1 1D F ... : G-1 1D F ... : ... .. . ... : ... .. . ... : ... .. . ...
ROW 27 : ... .. . ... : ... .. . ... : ... .. . ... : ... .. . ... : ... .. . ...
ROW 28 : D-2 24 F ... : G-2 02 F ... : ... .. . ... : ... .. . ... : ... .. . ...
ROW 29 : ... .. . ... : ... .. . ... : ... .. . ... : ... .. . ... : ... .. . ...
ROW 2A : D-3 12 F ... : G-1 02 F ... : ... .. . ... : ... .. . ... : ... .. . ...
ROW 2B : ... .. . ... : ... .. . ... : ... .. . ... : ... .. . ... : ... .. . ...
ROW 2C : D-3 29 F ... : --- 00 . ... : ... .. . ... : ... .. . ... : ... .. . ...
ROW 2D : ... .. . ... : ... .. . ... : ... .. . ... : ... .. . ... : ... .. . ...
ROW 2E : D-1 24 F ... : G-1 02 F ... : ... .. . ... : ... .. . ... : ... .. . ...
ROW 2F : ... .. . ... : ... .. . ... : ... .. . ... : ... .. . ... : ... .. . ...
ROW 30 : --- .. . ... : C-5 20 F ... : ... .. . ... : ... .. . ... : ... .. . ...
ROW 31 : ... .. . ... : C-5 21 F ... : ... .. . ... : ... .. . ... : ... .. . ...
ROW 32 : D-3 12 F ... : D#5 20 F ... : ... .. . ... : ... .. . ... : ... .. . ...
ROW 33 : D-3 29 F ... : C-5 21 F ... : ... .. . ... : ... .. . ... : ... .. . ...
ROW 34 : ... .. . ... : G#5 20 F ... : ... .. . ... : ... .. . ... : ... .. . ...
ROW 35 : ... .. . ... : D#5 21 F ... : ... .. . ... : ... .. . ... : ... .. . ...
ROW 36 : D-3 28 F ... : G-5 20 F ... : ... .. . ... : ... .. . ... : ... .. . ...
ROW 37 : D-3 29 F ... : G#5 21 F ... : ... .. . ... : ... .. . ... : ... .. . ...
ROW 38 : ... .. . ... : F-5 20 F ... : ... .. . ... : ... .. . ... : ... .. . ...
ROW 39 : ... .. . ... : G-5 21 F ... : ... .. . ... : ... .. . ... : ... .. . ...
ROW 3A : D-3 12 F ... : D-5 20 F ... : ... .. . ... : ... .. . ... : ... .. . ...
ROW 3B : ... .. . ... : F-5 21 F ... : ... .. . ... : ... .. . ... : ... .. . ...
ROW 3C : D-3 12 F ... : B-4 20 F ... : ... .. . ... : ... .. . ... : ... .. . ...
ROW 3D : D-3 28 8 ... : D-5 21 F ... : ... .. . ... : ... .. . ... : ... .. . ...
ROW 3E : D-3 29 4 ... : A#2 0A F ... : ... .. . ... : ... .. . ... : ... .. . ...
ROW 3F : ... .. . ... : B-2 0A F ... : ... .. . ... : ... .. . ... : ... .. . ...

PATTERN 07
ROW 00 : D#1 02 F ... : C-3 0A F ... : C-3 0E F ... : ... .. . ... : ... .. . ...
ROW 01 : ... .. . ... : ... .. . ... : ... .. . ... : ... .. . ... : ... .. . ...
ROW 02 : --- .. . ... : ... .. . ... : --- 00 . ... : ... .. . ... : ... .. . ...
ROW 03 : ... .. . ... : ... .. . ... : ... .. . ... : ... .. . ... : ... .. . ...
ROW 04 : D#1 02 F ... : ... .. . ... : C-2 0E F ... : ... .. . ... : ... .. . ...
ROW 05 : ... .. . ... : ... .. . ... : ... .. . ... : ... .. . ... : ... .. . ...
ROW 06 : D#1 1D F ... : ... .. . ... : ... .. . 130 : ... .. . ... : ... .. . ...
ROW 07 : ... .. . ... : ... .. . ... : ... .. . ... : ... .. . ... : ... .. . ...
ROW 08 : D#2 02 F ... : ... .. . ... : C-3 0F F 100 : ... .. . ... : ... .. . ...
ROW 09 : ... .. . ... : ... .. . ... : ... .. . ... : ... .. . ... : ... .. . ...
ROW 0A : D#1 02 F ... : ... .. . ... : C-2 02 F ... : ... .. . ... : ... .. . ...
ROW 0B : ... .. . ... : ... .. . ... : ... .. . ... : ... .. . ... : ... .. . ...
ROW 0C : --- .. . ... : ... .. . ... : --- 00 . ... : ... .. . ... : ... .. . ...
ROW 0D : ... .. . ... : ... .. . ... : ... .. . ... : ... .. . ... : ... .. . ...
ROW 0E : D#1 02 F ... : ... .. . ... : C-2 0F F ... : ... .. . ... : ... .. . ...
ROW 0F : ... .. . ... : ... .. . ... : ... .. . ... : ... .. . ... : ... .. . ...
ROW 10 : --- .. . ... : C-3 22 . ... : --- .. . ... : ... .. . ... : ... .. . ...
ROW 11 : ... .. . ... : ... .. . ... : ... .. . ... : ... .. . ... : ... .. . ...
ROW 12 : ... .. . ... : D-3 0A . ... : C-3 04 . ... : ... .. . ... : ... .. . ...
ROW 13 : ... .. . ... : D-3 22 . ... : ... .. . ... : ... .. . ... : ... .. . ...
ROW 14 : C-3 0B F ... : D-3 23 . ... : C-3 03 . ... : ... .. . ... : ... .. . ...
ROW 15 : ... .. . ... : D#3 22 . ... : ... .. . ... : ... .. . ... : ... .. . ...
ROW 16 : C-3 26 F ... : D-3 0A . ... : ... .. . ... : ... .. . ... : ... .. . ...
ROW 17 : ... .. . ... : D-3 0A . ... : ... .. . ... : ... .. . ... : ... .. . ...
ROW 18 : ... .. . ... : F-3 0A . ... : C-3 04 . ... : ... .. . ... : ... .. . ...
ROW 19 : ... .. . ... : ... .. . ... : ... .. . ... : ... .. . ... : ... .. . ...
ROW 1A : ... .. . ... : ... .. . ... : ... .. . ... : ... .. . ... : ... .. . ...
ROW 1B : ... .. . ... : ... .. . ... : ... .. . ... : ... .. . ... : ... .. . ...
ROW 1C : C-3 0B F ... : D#3 0A . ... : ... .. . ... : ... .. . ... : ... .. . ...
ROW 1D : ... .. . ... : ... .. . ... : ... .. . ... : ... .. . ... : ... .. . ...
ROW 1E : C-3 26 F ... : ... .. . ... : C-3 04 . ... : ... .. . ... : ... .. . ...
ROW 1F : ... .. . ... : ... .. . ... : ... .. . ... : ... .. . ... : ... .. . ...
ROW 20 : F-1 02 F ... : D-3 0A . ... : D-2 0E F ... : ... .. . ... : ... .. . ...
ROW 21 : ... .. . ... : D#3 0A . ... : ... .. . ... : ... .. . ... : ... .. . ...
ROW 22 : --- 00 . ... : D-3 0A . ... : --- 00 . ... : ... .. . ... : ... .. . ...
ROW 23 : ... .. . ... : ... .. . ... : ... .. . ... : ... .. . ... : ... .. . ...
ROW 24 : F-1 02 F ... : ... .. . ... : D-2 0E F ... : ... .. . ... : ... .. . ...
ROW 25 : ... .. . ... : ... .. . ... : ... .. . ... : ... .. . ... : ... .. . ...
ROW 26 : F-1 1D F ... : ... .. . ... : ... .. . 130 : ... .. . ... : ... .. . ...
ROW 27 : ... .. . ... : ... .. . ... : ... .. . ... : ... .. . ... : ... .. . ...
ROW 28 : F-2 02 F ... : ... .. . ... : D-3 0F F 100 : ... .. . ... : ... .. . ...
ROW 29 : ... .. . ... : ... .. . ... : ... .. . ... : ... .. . ... : ... .. . ...
ROW 2A : F-1 02 F ... : C-4 0D . ... : D-2 02 F ... : ... .. . ... : ... .. . ...
ROW 2B : ... .. . ... : C-4 20 . ... : ... .. . ... : ... .. . ... : ... .. . ...
ROW 2C : --- 00 . ... : B-3 0C . ... : --- 00 . ... : ... .. . ... : ... .. . ...
ROW 2D : ... .. . ... : C-4 21 . ... : ... .. . ... : ... .. . ... : ... .. . ...
ROW 2E : F#1 02 F ... : G#3 0C . ... : D-2 0F F ... : ... .. . ... : ... .. . ...
ROW 2F : --- .. . ... : B-3 21 . ... : ... .. . ... : ... .. . ... : ... .. . ...
ROW 30 : G-1 02 . ... : G-3 0C . ... : --- .. . ... : ... .. . ... : ... .. . ...
ROW 31 : ... .. . ... : G#3 21 . ... : ... .. . ... : ... .. . ... : ... .. . ...
ROW 32 : --- .. . ... : A#3 0C . ... : C-3 04 . ... : ... .. . ... : ... .. . ...
ROW 33 : ... .. . ... : G-3 21 . ... : ... .. . ... : ... .. . ... : ... .. . ...
ROW 34 : G-1 02 . ... : B-3 0C . ... : C-3 03 . ... : ... .. . ... : ... .. . ...
ROW 35 : ... .. . ... : A#3 21 . ... : ... .. . ... : ... .. . ... : ... .. . ...
ROW 36 : G-1 1D . ... : D-4 0C . ... : ... .. . ... : ... .. . ... : ... .. . ...
ROW 37 : ... .. . ... : B-3 21 . ... : ... .. . ... : ... .. . ... : ... .. . ...
ROW 38 : G-2 02 . ... : G-4 0C . ... : C-3 04 . ... : ... .. . ... : ... .. . ...
ROW 39 : ... .. . ... : D-4 21 . ... : ... .. . ... : ... .. . ... : ... .. . ...
ROW 3A : G-1 02 . ... : F-4 0C . ... : ... .. . ... : ... .. . ... : ... .. . ...
ROW 3B : ... .. . ... : G-4 21 . ... : ... .. . ... : ... .. . ... : ... .. . ...
ROW 3C : --- .. . ... : D-4 0C . ... : ... .. . ... : ... .. . ... : ... .. . ...
ROW 3D : ... .. . ... : F-4 21 . ... : ... .. . ... : ... .. . ... : ... .. . ...
ROW 3E : G-1 02 . ... : B-3 0C . ... : C-3 04 . ... : ... .. . ... : ... .. . ...
ROW 3F : ... .. . ... : D-4 21 . ... : ... .. . ... : ... .. . ... : ... .. . ...

PATTERN 08
ROW 00 : ... .. . ... : D#1 02 F P84 : G#2 0E F ... : ... .. . ... : ... .. . ...
ROW 01 : ... .. . ... : ... .. . ... : ... .. . ... : ... .. . ... : ... .. . ...
ROW 02 : ... .. . ... : --- 00 . ... : --- 00 . ... : ... .. . ... : ... .. . ...
ROW 03 : ... .. . ... : ... .. . ... : ... .. . ... : ... .. . ... : ... .. . ...
ROW 04 : ... .. . ... : D#1 02 F ... : G#2 0E F ... : ... .. . ... : ... .. . ...
ROW 05 : ... .. . ... : ... .. . ... : ... .. . ... : ... .. . ... : ... .. . ...
ROW 06 : ... .. . ... : ... .. . 130 : G#2 25 F ... : ... .. . ... : ... .. . ...
ROW 07 : ... .. . ... : ... .. . ... : ... .. . ... : ... .. . ... : ... .. . ...
ROW 08 : ... .. . ... : D#2 02 F 100 : G#3 0F F ... : ... .. . ... : ... .. . ...
ROW 09 : ... .. . ... : ... .. . ... : ... .. . ... : ... .. . ... : ... .. . ...
ROW 0A : ... .. . ... : D#1 02 F ... : G#2 02 F ... : ... .. . ... : ... .. . ...
ROW 0B : ... .. . ... : ... .. . ... : ... .. . ... : ... .. . ... : ... .. . ...
ROW 0C : ... .. . ... : --- 00 . ... : --- 00 . ... : ... .. . ... : ... .. . ...
ROW 0D : ... .. . ... : ... .. . ... : ... .. . ... : ... .. . ... : ... .. . ...
ROW 0E : ... .. . ... : D#1 02 F ... : G#2 0F F ... : ... .. . ... : ... .. . ...
ROW 0F : ... .. . ... : ... .. . ... : ... .. . ... : ... .. . ... : ... .. . ...
ROW 10 : ... .. . ... : --- .. . ... : --- .. . ... : ... .. . ... : ... .. . ...
ROW 11 : ... .. . ... : ... .. . ... : ... .. . ... : ... .. . ... : ... .. . ...
ROW 12 : ... .. . ... : ... .. . ... : C-3 04 . ... : ... .. . ... : ... .. . ...
ROW 13 : ... .. . ... : ... .. . ... : ... .. . ... : ... .. . ... : ... .. . ...
ROW 14 : ... .. . ... : ... .. . ... : C-3 03 . ... : ... .. . ... : ... .. . ...
ROW 15 : ... .. . ... : ... .. . ... : ... .. . ... : ... .. . ... : ... .. . ...
ROW 16 : ... .. . ... : ... .. . ... : ... .. . ... : ... .. . ... : ... .. . ...
ROW 17 : ... .. . ... : ... .. . ... : ... .. . ... : ... .. . ... : ... .. . ...
ROW 18 : ... .. . ... : ... .. . ... : D#4 0F . ... : ... .. . ... : ... .. . ...
ROW 19 : ... .. . ... : ... .. . ... : ... .. . ... : ... .. . ... : ... .. . ...
ROW 1A : ... .. . ... : ... .. . ... : C-4 19 . ... : ... .. . ... : ... .. . ...
ROW 1B : ... .. . ... : ... .. . ... : C-4 15 . ... : ... .. . ... : ... .. . ...
ROW 1C : ... .. . ... : ... .. . ... : B-3 15 . ... : ... .. . ... : ... .. . ...
ROW 1D : ... .. . ... : ... .. . ... : --- .. . ... : ... .. . ... : ... .. . ...
ROW 1E : ... .. . ... : ... .. . ... : G#3 0F . ... : ... .. . ... : ... .. . ...
ROW 1F : ... .. . ... : ... .. . ... : --- .. . ... : ... .. . ... : ... .. . ...
ROW 20 : ... .. . ... : F-1 02 F ... : A-3 35 . ... : ... .. . ... : ... .. . ...
ROW 21 : ... .. . ... : ... .. . ... : ... .. . ... : ... .. . ... : ... .. . ...
ROW 22 : ... .. . ... : --- 00 . ... : ... .. . ... : ... .. . ... : ... .. . ...
ROW 23 : ... .. . ... : ... .. . ... : ... .. . ... : ... .. . ... : ... .. . ...
ROW 24 : ... .. . ... : F-1 02 F ... : ... .. . ... : ... .. . ... : ... .. . ...
ROW 25 : ... .. . ... : ... .. . ... : ... .. . ... : ... .. . ... : ... .. . ...
ROW 26 : ... .. . ... : ... .. . 130 : ... .. . ... : ... .. . ... : ... .. . ...
ROW 27 : ... .. . ... : ... .. . ... : ... .. . ... : ... .. . ... : ... .. . ...
ROW 28 : ... .. . ... : F-2 02 F 100 : ... .. . ... : ... .. . ... : ... .. . ...
ROW 29 : ... .. . ... : ... .. . ... : ... .. . ... : ... .. . ... : ... .. . ...
ROW 2A : ... .. . ... : F-1 02 F ... : ... .. . ... : ... .. . ... : ... .. . ...
ROW 2B : ... .. . ... : ... .. . ... : ... .. . ... : ... .. . ... : ... .. . ...
ROW 2C : ... .. . ... : --- 00 . ... : ... .. . ... : ... .. . ... : ... .. . ...
ROW 2D : ... .. . ... : ... .. . ... : ... .. . ... : ... .. . ... : ... .. . ...
ROW 2E : ... .. . ... : F-1 02 F ... : ... .. . ... : ... .. . ... : ... .. . ...
ROW 2F : ... .. . ... : ... .. . ... : ... .. . ... : ... .. . ... : ... .. . ...
ROW 30 : ... .. . ... : --- .. . ... : G-1 0E F ... : ... .. . ... : ... .. . ...
ROW 31 : ... .. . ... : ... .. . ... : ... .. . ... : ... .. . ... : ... .. . ...
ROW 32 : ... .. . ... : ... .. . ... : ... .. . ... : ... .. . ... : ... .. . ...
ROW 33 : ... .. . ... : ... .. . ... : ... .. . ... : ... .. . ... : ... .. . ...
ROW 34 : ... .. . ... : ... .. . ... : ... .. . ... : ... .. . ... : ... .. . ...
ROW 35 : ... .. . ... : ... .. . ... : ... .. . ... : ... .. . ... : ... .. . ...
ROW 36 : ... .. . ... : ... .. . ... : ... .. . ... : ... .. . ... : ... .. . ...
ROW 37 : ... .. . ... : ... .. . ... : ... .. . ... : ... .. . ... : ... .. . ...
ROW 38 : ... .. . ... : ... .. . ... : ... .. . ... : ... .. . ... : ... .. . ...
ROW 39 : ... .. . ... : ... .. . ... : ... .. . ... : ... .. . ... : ... .. . ...
ROW 3A : ... .. . ... : ... .. . ... : ... .. . ... : ... .. . ... : ... .. . ...
ROW 3B : ... .. . ... : ... .. . ... : ... .. . ... : ... .. . ... : ... .. . ...
ROW 3C : ... .. . ... : ... .. . ... : ... .. . ... : ... .. . ... : ... .. . ...
ROW 3D : ... .. . ... : ... .. . ... : ... .. . ... : ... .. . ... : ... .. . ...
ROW 3E : ... .. . ... : ... .. . ... : ... .. . ... : ... .. . ... : ... .. . ...
ROW 3F : ... .. . ... : ... .. . P80 : ... .. . ... : ... .. . ... : ... .. . ...

PATTERN 09
ROW 00 : ... .. . ... : D#1 24 F ... : ... .. . ... : ... .. . ... : ... .. . ...
ROW 01 : ... .. . ... : ... .. . ... : ... .. . ... : ... .. . ... : ... .. . ...
ROW 02 : ... .. . ... : --- 00 . ... : ... .. . ... : ... .. . ... : ... .. . ...
ROW 03 : ... .. . ... : ... .. . ... : ... .. . ... : ... .. . ... : ... .. . ...
ROW 04 : ... .. . ... : D#1 24 F ... : ... .. . ... : ... .. . ... : ... .. . ...
ROW 05 : ... .. . ... : ... .. . ... : ... .. . ... : ... .. . ... : ... .. . ...
ROW 06 : ... .. . ... : D#1 1D . ... : ... .. . ... : ... .. . ... : ... .. . ...
ROW 07 : ... .. . ... : ... .. . ... : ... .. . ... : ... .. . ... : ... .. . ...
ROW 08 : ... .. . ... : D#2 24 F ... : ... .. . ... : ... .. . ... : ... .. . ...
ROW 09 : ... .. . ... : ... .. . ... : ... .. . ... : ... .. . ... : ... .. . ...
ROW 0A : ... .. . ... : D#1 24 F ... : ... .. . ... : ... .. . ... : ... .. . ...
ROW 0B : ... .. . ... : ... .. . ... : ... .. . ... : ... .. . ... : ... .. . ...
ROW 0C : ... .. . ... : --- 00 . ... : ... .. . ... : ... .. . ... : ... .. . ...
ROW 0D : ... .. . ... : ... .. . ... : ... .. . ... : ... .. . ... : ... .. . ...
ROW 0E : ... .. . ... : D#1 24 F ... : ... .. . ... : ... .. . ... : ... .. . ...
ROW 0F : ... .. . ... : ... .. . ... : ... .. . ... : ... .. . ... : ... .. . ...
ROW 10 : ... .. . ... : --- .. . ... : ... .. . ... : ... .. . ... : ... .. . ...
ROW 11 : ... .. . ... : ... .. . ... : ... .. . ... : ... .. . ... : ... .. . ...
ROW 12 : ... .. . ... : ... .. . ... : ... .. . ... : ... .. . ... : ... .. . ...
ROW 13 : ... .. . ... : ... .. . ... : ... .. . ... : ... .. . ... : ... .. . ...
ROW 14 : ... .. . ... : ... .. . ... : ... .. . ... : ... .. . ... : ... .. . ...
ROW 15 : ... .. . ... : ... .. . ... : ... .. . ... : ... .. . ... : ... .. . ...
ROW 16 : ... .. . ... : ... .. . ... : ... .. . ... : ... .. . ... : ... .. . ...
ROW 17 : ... .. . ... : ... .. . ... : ... .. . ... : ... .. . ... : ... .. . ...
ROW 18 : ... .. . ... : ... .. . ... : ... .. . ... : ... .. . ... : ... .. . ...
ROW 19 : ... .. . ... : ... .. . ... : ... .. . ... : ... .. . ... : ... .. . ...
ROW 1A : ... .. . ... : ... .. . ... : ... .. . ... : ... .. . ... : ... .. . ...
ROW 1B : ... .. . ... : ... .. . ... : ... .. . ... : ... .. . ... : ... .. . ...
ROW 1C : ... .. . ... : ... .. . ... : ... .. . ... : ... .. . ... : ... .. . ...
ROW 1D : ... .. . ... : ... .. . ... : ... .. . ... : ... .. . ... : ... .. . ...
ROW 1E : ... .. . ... : ... .. . ... : ... .. . ... : ... .. . ... : ... .. . ...
ROW 1F : ... .. . ... : ... .. . ... : ... .. . ... : ... .. . ... : ... .. . ...
ROW 20 : ... .. . ... : C-3 11 F P80 : ... .. . ... : ... .. . ... : ... .. . ...
ROW 21 : ... .. . ... : ... .. . ... : ... .. . ... : ... .. . ... : ... .. . ...
ROW 22 : ... .. . ... : ... .. . ... : ... .. . ... : ... .. . ... : ... .. . ...
ROW 23 : ... .. . ... : ... .. . ... : ... .. . ... : ... .. . ... : ... .. . ...
ROW 24 : ... .. . ... : ... .. . ... : ... .. . ... : ... .. . ... : ... .. . ...
ROW 25 : ... .. . ... : C#3 2C . ... : ... .. . ... : ... .. . ... : ... .. . ...
ROW 26 : ... .. . ... : ... .. . ... : ... .. . ... : ... .. . ... : ... .. . ...
ROW 27 : ... .. . ... : ... .. . ... : ... .. . ... : ... .. . ... : ... .. . ...
ROW 28 : ... .. . ... : --- .. . ... : ... .. . ... : ... .. . ... : ... .. . ...
ROW 29 : ... .. . ... : ... .. . ... : ... .. . ... : ... .. . ... : ... .. . ...
ROW 2A : ... .. . ... : C-3 11 . ... : ... .. . ... : ... .. . ... : ... .. . ...
ROW 2B : ... .. . ... : ... .. . ... : ... .. . ... : ... .. . ... : ... .. . ...
ROW 2C : ... .. . ... : B-2 11 . ... : ... .. . ... : ... .. . ... : ... .. . ...
ROW 2D : ... .. . ... : ... .. . ... : ... .. . ... : ... .. . ... : ... .. . ...
ROW 2E : ... .. . ... : G#2 11 . ... : ... .. . ... : ... .. . ... : ... .. . ...
ROW 2F : ... .. . ... : ... .. . ... : ... .. . ... : ... .. . ... : ... .. . ...
ROW 30 : ... .. . ... : B-2 11 . ... : ... .. . ... : ... .. . ... : ... .. . ...
ROW 31 : ... .. . ... : C-3 11 . ... : ... .. . ... : ... .. . ... : ... .. . ...
ROW 32 : ... .. . ... : B-2 11 . ... : ... .. . ... : ... .. . ... : ... .. . ...
ROW 33 : ... .. . ... : ... .. . ... : ... .. . ... : ... .. . ... : ... .. . ...
ROW 34 : ... .. . ... : ... .. . ... : ... .. . ... : ... .. . ... : ... .. . ...
ROW 35 : ... .. . ... : ... .. . ... : ... .. . ... : ... .. . ... : ... .. . ...
ROW 36 : ... .. . ... : ... .. . ... : ... .. . ... : ... .. . ... : ... .. . ...
ROW 37 : ... .. . ... : ... .. . ... : ... .. . ... : ... .. . ... : ... .. . ...
ROW 38 : ... .. . ... : --- .. . ... : ... .. . ... : ... .. . ... : ... .. . ...
ROW 39 : ... .. . ... : ... .. . ... : ... .. . ... : ... .. . ... : ... .. . ...
ROW 3A : ... .. . ... : B-2 11 . ... : ... .. . ... : ... .. . ... : ... .. . ...
ROW 3B : ... .. . ... : G#2 11 . ... : ... .. . ... : ... .. . ... : ... .. . ...
ROW 3C : ... .. . ... : G-2 11 . ... : ... .. . ... : ... .. . ... : ... .. . ...
ROW 3D : ... .. . ... : --- .. . ... : ... .. . ... : ... .. . ... : ... .. . ...
ROW 3E : ... .. . ... : F-2 11 . ... : ... .. . ... : ... .. . ... : ... .. . ...
ROW 3F : ... .. . ... : --- .. . ... : ... .. . ... : ... .. . ... : ... .. . ...

PATTERN 0A
ROW 00 : G#1 24 F ... : A#3 30 F ... : ... .. . ... : ... .. . ... : ... .. . ...
ROW 01 : ... .. . ... : ... .. . ... : ... .. . ... : ... .. . ... : ... .. . ...
ROW 02 : --- 00 . ... : ... .. . ... : ... .. . ... : ... .. . ... : ... .. . ...
ROW 03 : ... .. . ... : ... .. . ... : ... .. . ... : ... .. . ... : ... .. . ...
ROW 04 : G#1 24 F ... : C-4 31 . ... : ... .. . ... : ... .. . ... : ... .. . ...
ROW 05 : ... .. . ... : ... .. . ... : ... .. . ... : ... .. . ... : ... .. . ...
ROW 06 : G#1 1D F ... : ... .. . ... : ... .. . ... : ... .. . ... : ... .. . ...
ROW 07 : ... .. . ... : ... .. . ... : ... .. . ... : ... .. . ... : ... .. . ...
ROW 08 : G#2 24 F ... : C-4 2F . ... : ... .. . ... : ... .. . ... : ... .. . ...
ROW 09 : ... .. . ... : ... .. . ... : ... .. . ... : ... .. . ... : ... .. . ...
ROW 0A : G#1 24 F ... : C-4 2D . ... : ... .. . ... : ... .. . ... : ... .. . ...
ROW 0B : ... .. . ... : --- .. . ... : ... .. . ... : ... .. . ... : ... .. . ...
ROW 0C : --- 00 . ... : C-3 13 . ... : ... .. . ... : ... .. . ... : ... .. . ...
ROW 0D : ... .. . ... : ... .. . ... : ... .. . ... : ... .. . ... : ... .. . ...
ROW 0E : G#1 24 F ... : D-3 13 . ... : ... .. . ... : ... .. . ... : ... .. . ...
ROW 0F : ... .. . ... : --- 30 . ... : ... .. . ... : ... .. . ... : ... .. . ...
ROW 10 : --- .. . ... : D#3 13 . ... : ... .. . ... : ... .. . ... : ... .. . ...
ROW 11 : ... .. . ... : ... .. . ... : ... .. . ... : ... .. . ... : ... .. . ...
ROW 12 : ... .. . ... : C-3 13 . ... : ... .. . ... : ... .. . ... : ... .. . ...
ROW 13 : ... .. . ... : --- .. . ... : ... .. . ... : ... .. . ... : ... .. . ...
ROW 14 : ... .. . ... : ... .. . ... : ... .. . ... : ... .. . ... : ... .. . ...
ROW 15 : ... .. . ... : E-3 32 . ... : ... .. . ... : ... .. . ... : ... .. . ...
ROW 16 : ... .. . ... : ... .. . ... : ... .. . ... : ... .. . ... : ... .. . ...
ROW 17 : ... .. . ... : F-3 31 . ... : ... .. . ... : ... .. . ... : ... .. . ...
ROW 18 : ... .. . ... : --- .. . ... : ... .. . ... : ... .. . ... : ... .. . ...
ROW 19 : ... .. . ... : ... .. . ... : ... .. . ... : ... .. . ... : ... .. . ...
ROW 1A : ... .. . ... : D#3 13 . ... : ... .. . ... : ... .. . ... : ... .. . ...
ROW 1B : ... .. . ... : --- .. . ... : ... .. . ... : ... .. . ... : ... .. . ...
ROW 1C : F-1 02 F ... : D-3 13 . ... : ... .. . ... : ... .. . ... : ... .. . ...
ROW 1D : ... .. . ... : --- .. . ... : ... .. . ... : ... .. . ... : ... .. . ...
ROW 1E : F#1 02 F ... : C-3 13 . ... : ... .. . ... : ... .. . ... : ... .. . ...
ROW 1F : ... .. . ... : --- .. . ... : ... .. . ... : ... .. . ... : ... .. . ...
ROW 20 : G-1 02 F ... : D-3 13 . ... : ... .. . ... : ... .. . ... : ... .. . ...
ROW 21 : ... .. . ... : D#3 13 . ... : ... .. . ... : ... .. . ... : ... .. . ...
ROW 22 : --- 00 . ... : D-3 13 . ... : ... .. . ... : ... .. . ... : ... .. . ...
ROW 23 : ... .. . ... : ... .. . ... : ... .. . ... : ... .. . ... : ... .. . ...
ROW 24 : G-1 02 F ... : ... .. . ... : ... .. . ... : ... .. . ... : ... .. . ...
ROW 25 : ... .. . ... : ... .. . ... : ... .. . ... : ... .. . ... : ... .. . ...
ROW 26 : G-1 1D F ... : ... .. . ... : ... .. . ... : ... .. . ... : ... .. . ...
ROW 27 : ... .. . ... : ... .. . ... : ... .. . ... : ... .. . ... : ... .. . ...
ROW 28 : G-2 02 F ... : --- .. . ... : ... .. . ... : ... .. . ... : ... .. . ...
ROW 29 : ... .. . ... : ... .. . ... : ... .. . ... : ... .. . ... : ... .. . ...
ROW 2A : G-1 02 F ... : ... .. . ... : ... .. . ... : ... .. . ... : ... .. . ...
ROW 2B : ... .. . ... : ... .. . ... : ... .. . ... : ... .. . ... : ... .. . ...
ROW 2C : --- 00 . ... : ... .. . ... : ... .. . ... : ... .. . ... : ... .. . ...
ROW 2D : ... .. . ... : ... .. . ... : ... .. . ... : ... .. . ... : ... .. . ...
ROW 2E : G-1 02 F ... : C-4 0C F 300 : ... .. . ... : ... .. . ... : ... .. . ...
ROW 2F : ... .. . ... : C#4 0C F ... : ... .. . ... : ... .. . ... : ... .. . ...
ROW 30 : G-1 36 F ... : D-4 0C F ... : ... .. . ... : ... .. . ... : ... .. . ...
ROW 31 : ... .. . ... : C#4 21 F ... : ... .. . ... : ... .. . ... : ... .. . ...
ROW 32 : ... .. . ... : B-3 0C F ... : ... .. . ... : ... .. . ... : ... .. . ...
ROW 33 : ... .. . ... : D-4 21 F ... : ... .. . ... : ... .. . ... : ... .. . ...
ROW 34 : ... .. . ... : G-3 0C F ... : ... .. . ... : ... .. . ... : ... .. . ...
ROW 35 : ... .. . ... : B-3 21 F ... : ... .. . ... : ... .. . ... : ... .. . ...
ROW 36 : ... .. . ... : B-3 0C F ... : ... .. . ... : ... .. . ... : ... .. . ...
ROW 37 : ... .. . ... : G-3 21 F ... : ... .. . ... : ... .. . ... : ... .. . ...
ROW 38 : ... .. . ... : G-4 0C F ... : ... .. . ... : ... .. . ... : ... .. . ...
ROW 39 : ... .. . ... : B-3 21 F ... : ... .. . ... : ... .. . ... : ... .. . ...
ROW 3A : ... .. . ... : F-4 0C F ... : ... .. . ... : ... .. . ... : ... .. . ...
ROW 3B : ... .. . ... : G-4 21 F ... : ... .. . ... : ... .. . ... : ... .. . ...
ROW 3C : ... .. . ... : D-4 0C F ... : ... .. . ... : ... .. . ... : ... .. . ...
ROW 3D : ... .. . ... : F-4 21 F ... : ... .. . ... : ... .. . ... : ... .. . ...
ROW 3E : ... .. . ... : B-3 0C F ... : ... .. . ... : ... .. . ... : ... .. . ...
ROW 3F : ... .. . ... : D-4 21 F ... : ... .. . ... : ... .. . ... : ... .. . ...

PATTERN 0C
ROW 00 : ... .. . ... : G-3 33 F ... : ... .. . ... : ... .. . ... : ... .. . ...
ROW 01 : ... .. . ... : ... .. . ... : ... .. . ... : ... .. . ... : ... .. . ...
ROW 02 : ... .. . ... : ... .. . ... : ... .. . ... : ... .. . ... : ... .. . ...
ROW 03 : ... .. . ... : ... .. . ... : ... .. . ... : ... .. . ... : ... .. . ...
ROW 04 : ... .. . ... : ... .. . ... : ... .. . ... : ... .. . ... : ... .. . ...
ROW 05 : ... .. . ... : ... .. . ... : ... .. . ... : ... .. . ... : ... .. . ...
ROW 06 : ... .. . ... : ... .. . ... : ... .. . ... : ... .. . ... : ... .. . ...
ROW 07 : ... .. . ... : ... .. . ... : ... .. . ... : ... .. . ... : ... .. . ...
ROW 08 : ... .. . ... : --- .. . ... : ... .. . ... : ... .. . ... : ... .. . ...
ROW 09 : ... .. . ... : ... .. . ... : ... .. . ... : ... .. . ... : ... .. . ...
ROW 0A : ... .. . ... : C-3 15 . ... : ... .. . ... : ... .. . ... : ... .. . ...
ROW 0B : ... .. . ... : D-3 15 . ... : ... .. . ... : ... .. . ... : ... .. . ...
ROW 0C : ... .. . ... : D#3 15 . ... : ... .. . ... : ... .. . ... : ... .. . ...
ROW 0D : ... .. . ... : --- .. . ... : ... .. . ... : ... .. . ... : ... .. . ...
ROW 0E : ... .. . ... : C-3 15 . ... : ... .. . ... : ... .. . ... : ... .. . ...
ROW 0F : ... .. . ... : --- .. . ... : ... .. . ... : ... .. . ... : ... .. . ...
ROW 10 : ... .. . ... : E-3 34 . ... : ... .. . ... : ... .. . ... : ... .. . ...
ROW 11 : ... .. . ... : F-3 15 . ... : ... .. . ... : ... .. . ... : ... .. . ...
ROW 12 : ... .. . ... : D#3 15 . ... : ... .. . ... : ... .. . ... : ... .. . ...
ROW 13 : ... .. . ... : --- .. . ... : ... .. . ... : ... .. . ... : ... .. . ...
ROW 14 : ... .. . ... : D-3 15 . ... : ... .. . ... : ... .. . ... : ... .. . ...
ROW 15 : ... .. . ... : --- .. . ... : ... .. . ... : ... .. . ... : ... .. . ...
ROW 16 : ... .. . ... : C-3 15 . ... : ... .. . ... : ... .. . ... : ... .. . ...
ROW 17 : ... .. . ... : --- .. . ... : ... .. . ... : ... .. . ... : ... .. . ...
ROW 18 : ... .. . ... : B-2 15 . ... : ... .. . ... : ... .. . ... : ... .. . ...
ROW 19 : ... .. . ... : ... .. . ... : ... .. . ... : ... .. . ... : ... .. . ...
ROW 1A : ... .. . ... : G#2 19 . ... : ... .. . ... : ... .. . ... : ... .. . ...
ROW 1B : ... .. . ... : G#2 15 . ... : ... .. . ... : ... .. . ... : ... .. . ...
ROW 1C : ... .. . ... : G-2 15 . ... : ... .. . ... : ... .. . ... : ... .. . ...
ROW 1D : ... .. . ... : --- .. . ... : ... .. . ... : ... .. . ... : ... .. . ...
ROW 1E : ... .. . ... : F-2 15 . ... : ... .. . ... : ... .. . ... : ... .. . ...
ROW 1F : ... .. . ... : --- .. . ... : ... .. . ... : ... .. . ... : ... .. . ...
ROW 20 : ... .. . ... : F-2 34 . ... : ... .. . ... : ... .. . ... : ... .. . ...
ROW 21 : ... .. . ... : ... .. . ... : ... .. . ... : ... .. . ... : ... .. . ...
ROW 22 : ... .. . ... : ... .. . ... : ... .. . ... : ... .. . ... : ... .. . ...
ROW 23 : ... .. . ... : ... .. . ... : ... .. . ... : ... .. . ... : ... .. . ...
ROW 24 : ... .. . ... : ... .. . ... : ... .. . ... : ... .. . ... : ... .. . ...
ROW 25 : ... .. . ... : ... .. . ... : ... .. . ... : ... .. . ... : ... .. . ...
ROW 26 : ... .. . ... : ... .. . ... : ... .. . ... : ... .. . ... : ... .. . ...
ROW 27 : ... .. . ... : ... .. . ... : ... .. . ... : ... .. . ... : ... .. . ...
ROW 28 : ... .. . ... : ... .. . ... : ... .. . ... : ... .. . ... : ... .. . ...
ROW 29 : ... .. . ... : ... .. . ... : ... .. . ... : ... .. . ... : ... .. . ...
ROW 2A : ... .. . ... : ... .. . ... : ... .. . ... : ... .. . ... : ... .. . ...
ROW 2B : ... .. . ... : ... .. . ... : ... .. . ... : ... .. . ... : ... .. . ...
ROW 2C : ... .. . ... : ... .. . ... : ... .. . ... : ... .. . ... : ... .. . ...
ROW 2D : ... .. . ... : ... .. . ... : ... .. . ... : ... .. . ... : ... .. . ...
ROW 2E : ... .. . ... : ... .. . ... : ... .. . ... : ... .. . ... : ... .. . ...
ROW 2F : ... .. . ... : ... .. . ... : ... .. . ... : ... .. . ... : ... .. . ...
ROW 30 : ... .. . ... : G-1 37 F ... : ... .. . ... : ... .. . ... : ... .. . ...
ROW 31 : ... .. . ... : ... .. . ... : ... .. . ... : ... .. . ... : ... .. . ...
ROW 32 : ... .. . ... : ... .. . ... : ... .. . ... : ... .. . ... : ... .. . ...
ROW 33 : ... .. . ... : ... .. . ... : ... .. . ... : ... .. . ... : ... .. . ...
ROW 34 : ... .. . ... : ... .. . ... : ... .. . ... : ... .. . ... : ... .. . ...
ROW 35 : ... .. . ... : ... .. . ... : ... .. . ... : ... .. . ... : ... .. . ...
ROW 36 : ... .. . ... : ... .. . ... : ... .. . ... : ... .. . ... : ... .. . ...
ROW 37 : ... .. . ... : ... .. . ... : ... .. . ... : ... .. . ... : ... .. . ...
ROW 38 : ... .. . ... : ... .. . ... : ... .. . ... : ... .. . ... : ... .. . ...
ROW 39 : ... .. . ... : ... .. . ... : ... .. . ... : ... .. . ... : ... .. . ...
ROW 3A : ... .. . ... : ... .. . ... : ... .. . ... : ... .. . ... : ... .. . ...
ROW 3B : ... .. . ... : ... .. . ... : ... .. . ... : ... .. . ... : ... .. . ...
ROW 3C : ... .. . ... : ... .. . ... : ... .. . ... : ... .. . ... : ... .. . ...
ROW 3D : ... .. . ... : ... .. . ... : ... .. . ... : ... .. . ... : ... .. . ...
ROW 3E : ... .. . ... : ... .. . ... : ... .. . ... : ... .. . ... : ... .. . ...
ROW 3F : ... .. . ... : ... .. . ... : ... .. . ... : ... .. . ... : ... .. . ...

# End of export
